<svg class="svg-resp" viewBox="0 0 207 218" fill="none" xmlns="http://www.w3.org/2000/svg">
    <path
        d="M17.3911 39.8328L17.4478 40.9417C17.4478 40.9417 23.3378 38.4661 26.8758 40.2764C26.9996 40.5033 27.2265 40.6477 27.4793 40.6735L28.944 40.8076C29.2586 40.8282 29.5578 40.6529 29.6918 40.3641C29.6918 40.3641 33.1783 38.7136 36.7835 40.6116L38.1502 41.2305L35.4735 27.1659L18.6289 23.9321L17.3911 39.8328Z"
        fill="#7B20F9" />
    <path
        d="M16.4473 38.2758L16.504 40.2718C16.504 40.2718 22.3423 36.7853 28.1858 40.3852L26.7005 30.7974C26.7005 30.7974 16.8908 36.2437 16.4473 38.2758Z"
        fill="#EBEBEB" />
    <path
        d="M15.3438 23.8293C15.3438 23.8293 22.3425 18.4449 27.6393 25.9645L28.186 40.385C28.186 40.385 21.7855 33.8865 15.7976 38.7037L15.3438 23.8293Z"
        fill="#F5F5F5" />
    <path
        d="M28.1859 40.385C28.1859 40.385 34.2202 36.5375 38.5835 40.6171L37.325 27.4499L27.6598 26.4648L28.1859 40.385Z"
        fill="#EBEBEB" />
    <path
        d="M27.629 25.975C27.629 25.975 29.7127 21.3126 34.1378 21.7665L36.9693 22.1533L38.4857 35.3824C38.4857 35.3824 31.5488 34.583 28.1809 40.3955L27.629 25.975Z"
        fill="#F5F5F5" />
    <path
        d="M28.1861 40.3852C28.1706 40.3852 28.15 40.1841 28.1242 39.8231C28.1035 39.4105 28.0726 38.8947 28.0416 38.2861C27.9849 36.9348 27.9075 35.1658 27.8199 33.2059C27.7374 31.2461 27.66 29.477 27.5981 28.1258C27.5723 27.512 27.5465 26.9963 27.531 26.5888C27.5156 26.2278 27.5156 26.0215 27.5362 26.0215C27.5517 26.0215 27.5826 26.2175 27.6239 26.5837C27.6651 26.9447 27.7116 27.4708 27.7683 28.1206C27.8714 29.4203 27.9746 31.2151 28.0571 33.2008C28.1396 35.1864 28.1912 36.9813 28.2118 38.281C28.2222 38.9308 28.2273 39.4569 28.2222 39.8231C28.2118 40.1841 28.2015 40.3852 28.1861 40.3852Z"
        fill="#E0E0E0" />
    <path
        d="M35.4635 24.3347C35.4583 24.376 35.0096 24.2935 34.2927 24.3038C33.5758 24.3141 32.5856 24.4585 31.5747 24.8814C30.569 25.3095 29.7696 25.9181 29.2641 26.4287C28.7535 26.9341 28.506 27.3106 28.4699 27.2848C28.4544 27.2745 28.506 27.1765 28.6143 27.0012C28.7174 26.8258 28.8979 26.5834 29.1403 26.31C29.6251 25.7582 30.4349 25.1032 31.4767 24.6648C32.5185 24.2264 33.5552 24.1026 34.2876 24.1387C34.6537 24.1542 34.9529 24.1903 35.1489 24.2419C35.3603 24.2883 35.4686 24.3192 35.4635 24.3347Z"
        fill="#E0E0E0" />
    <path
        d="M35.8347 25.8362C35.8295 25.8774 35.3808 25.7949 34.6639 25.8052C33.947 25.8155 32.9568 25.96 31.9459 26.3829C30.9402 26.8109 30.1408 27.4195 29.6353 27.9301C29.1247 28.4356 28.8772 28.8121 28.8411 28.7863C28.8256 28.776 28.8772 28.678 28.9855 28.5026C29.0886 28.3273 29.2692 28.0849 29.5116 27.8115C29.9964 27.2597 30.8061 26.6046 31.8479 26.1663C32.8897 25.7279 33.9264 25.6041 34.6588 25.6402C35.025 25.6557 35.3241 25.6918 35.5201 25.7433C35.7264 25.7898 35.8347 25.8207 35.8347 25.8362Z"
        fill="#E0E0E0" />
    <path
        d="M35.9222 27.4709C35.9171 27.5122 35.4684 27.4297 34.7515 27.44C34.0346 27.4503 33.0443 27.5947 32.0334 28.0176C31.0277 28.4457 30.2283 29.0543 29.7229 29.5649C29.2123 30.0703 28.9647 30.4468 28.9286 30.4211C28.9131 30.4107 28.9647 30.3127 29.073 30.1374C29.1762 29.962 29.3567 29.7196 29.5991 29.4463C30.0839 28.8944 30.8936 28.2394 31.9354 27.801C32.9773 27.3626 34.0139 27.2388 34.7463 27.275C35.1125 27.2904 35.4116 27.3265 35.6076 27.3781C35.8191 27.4245 35.9274 27.4555 35.9222 27.4709Z"
        fill="#E0E0E0" />
    <path
        d="M36.2317 28.9923C36.2265 29.0335 35.7778 28.951 35.0609 28.9613C34.344 28.9716 33.3538 29.116 32.3429 29.539C31.3372 29.967 30.5377 30.5756 30.0323 31.0862C29.5217 31.5917 29.2741 31.9682 29.238 31.9424C29.2226 31.9321 29.2741 31.8341 29.3825 31.6587C29.4856 31.4833 29.6661 31.2409 29.9085 30.9676C30.3933 30.4157 31.2031 29.7607 32.2449 29.3223C33.2867 28.8839 34.3234 28.7602 35.0558 28.7911C35.4219 28.8066 35.7211 28.8427 35.9171 28.8943C36.1285 28.9407 36.2368 28.9768 36.2317 28.9923Z"
        fill="#E0E0E0" />
    <path
        d="M36.5925 30.5911C36.5874 30.6323 36.1386 30.5498 35.4218 30.5601C34.7049 30.5704 33.7146 30.7148 32.7037 31.1378C31.698 31.5658 30.8986 32.1744 30.3931 32.685C29.8826 33.1905 29.635 33.567 29.5989 33.5412C29.5834 33.5309 29.635 33.4329 29.7433 33.2575C29.8464 33.0821 30.027 32.8397 30.2694 32.5664C30.7542 32.0145 31.5639 31.3595 32.6057 30.9211C33.6476 30.4827 34.6842 30.359 35.4166 30.3951C35.7828 30.4105 36.0819 30.4466 36.2779 30.4982C36.4842 30.5446 36.5925 30.5756 36.5925 30.5911Z"
        fill="#E0E0E0" />
    <path
        d="M37.0569 32.3856C37.0517 32.4269 36.5669 32.3341 35.7881 32.365C35.3961 32.3702 34.9371 32.432 34.4265 32.5197C33.9211 32.6229 33.3744 32.7724 32.8174 32.9839C32.2655 33.2005 31.7549 33.4584 31.3114 33.7214C30.8781 33.9999 30.4965 34.2681 30.2128 34.5363C29.63 35.0572 29.3618 35.4698 29.3257 35.444C29.3102 35.4337 29.3721 35.3254 29.4907 35.1398C29.5475 35.0418 29.63 34.9335 29.7332 34.8148C29.8311 34.691 29.9498 34.5518 30.0942 34.4177C30.3727 34.1289 30.7543 33.8349 31.1927 33.5409C31.6414 33.2572 32.1572 32.9942 32.7297 32.7673C33.3022 32.5507 33.8643 32.4063 34.3853 32.3134C34.9062 32.2361 35.3807 32.1896 35.783 32.2051C35.9841 32.2 36.1646 32.2206 36.3193 32.2361C36.4792 32.2515 36.6133 32.267 36.7216 32.2979C36.9434 32.3341 37.062 32.3702 37.0569 32.3856Z"
        fill="#E0E0E0" />
    <path
        d="M37.1241 33.8195C37.1189 33.8607 36.6341 33.7679 35.8502 33.8091C35.4582 33.8195 34.994 33.8968 34.4886 34C33.9831 34.1238 33.4416 34.2888 32.8898 34.5157C32.3431 34.753 31.8428 35.0263 31.4044 35.3048C30.9763 35.5988 30.5998 35.8773 30.3213 36.1507C29.7436 36.6819 29.4755 37.0945 29.4394 37.0739C29.4239 37.0636 29.4858 36.9552 29.6044 36.7696C29.6611 36.6716 29.7436 36.5633 29.8468 36.4395C29.9448 36.3157 30.0634 36.1765 30.2078 36.032C30.4812 35.7381 30.8577 35.4389 31.2858 35.1295C31.7293 34.8355 32.2399 34.5467 32.8021 34.3043C33.3694 34.0722 33.9316 33.902 34.4473 33.7937C34.9682 33.7008 35.4479 33.6389 35.8502 33.6493C36.0513 33.6441 36.2318 33.6544 36.3917 33.6751C36.5516 33.6854 36.6857 33.706 36.794 33.7318C37.0106 33.773 37.1292 33.804 37.1241 33.8195Z"
        fill="#E0E0E0" />
    <path
        d="M26.1489 36.6767C26.118 36.7025 25.8137 36.2899 25.1948 35.7742C24.581 35.2584 23.6114 34.655 22.4149 34.3816C21.2183 34.1083 20.0836 34.2217 19.3049 34.4177C18.5209 34.6137 18.0722 34.851 18.0516 34.8149C18.0464 34.7994 18.1496 34.7272 18.3559 34.6189C18.5622 34.5106 18.8665 34.3765 19.2636 34.2578C20.0475 34.0154 21.2286 33.8659 22.4716 34.1495C23.7146 34.4384 24.71 35.083 25.3082 35.6452C25.6125 35.9289 25.8291 36.1816 25.9684 36.3673C26.1025 36.5529 26.1644 36.6664 26.1489 36.6767Z"
        fill="#E0E0E0" />
    <path
        d="M26.035 34.8252C26.0041 34.8509 25.6998 34.4383 25.0809 33.9226C24.4671 33.4068 23.4975 32.8034 22.301 32.5301C21.1044 32.2567 19.9698 32.3702 19.191 32.5662C18.407 32.7621 17.9583 32.9994 17.9377 32.9633C17.9325 32.9478 18.0357 32.8756 18.242 32.7673C18.4431 32.659 18.7526 32.5249 19.1497 32.4063C19.9337 32.1639 21.1147 32.0143 22.3577 32.298C23.6007 32.5868 24.5961 33.2315 25.1943 33.7936C25.4986 34.0773 25.7153 34.33 25.8545 34.5157C25.9886 34.7014 26.0505 34.8148 26.035 34.8252Z"
        fill="#E0E0E0" />
    <path
        d="M25.9216 32.9736C25.8907 32.9994 25.5864 32.5868 24.9675 32.071C24.3537 31.5553 23.3841 30.9518 22.1876 30.6785C20.991 30.4051 19.8563 30.5186 19.0776 30.7146C18.2936 30.9106 17.8449 31.1478 17.8243 31.1117C17.8191 31.0963 17.9223 31.024 18.1286 30.9157C18.3297 30.8074 18.6392 30.6733 19.0363 30.5547C19.8202 30.3123 21.0013 30.1627 22.2443 30.4464C23.4873 30.7352 24.4827 31.3799 25.0809 31.9421C25.3852 32.2258 25.6019 32.4785 25.7411 32.6641C25.8752 32.8498 25.9371 32.9633 25.9216 32.9736Z"
        fill="#E0E0E0" />
    <path
        d="M25.8082 31.122C25.7773 31.1478 25.473 30.7352 24.8541 30.2195C24.2403 29.7037 23.2707 29.1003 22.0742 28.8269C20.8776 28.5536 19.7429 28.667 18.9642 28.863C18.1802 29.059 17.7315 29.2963 17.7109 29.2602C17.7057 29.2447 17.8089 29.1725 18.0152 29.0642C18.2163 28.9559 18.5258 28.8218 18.9229 28.7031C19.7068 28.4607 20.8879 28.3112 22.1309 28.5948C23.3739 28.8837 24.3693 29.5284 24.9675 30.0905C25.2718 30.3742 25.4884 30.6269 25.6277 30.8126C25.7566 30.9983 25.8237 31.1117 25.8082 31.122Z"
        fill="#E0E0E0" />
    <path
        d="M25.6951 29.271C25.6641 29.2968 25.3598 28.8841 24.7409 28.3684C24.1272 27.8526 23.1575 27.2492 21.961 26.9759C20.7644 26.7025 19.6298 26.816 18.851 27.012C18.0671 27.2079 17.6183 27.4452 17.5977 27.4091C17.5926 27.3936 17.6957 27.3214 17.902 27.2131C18.1083 27.1048 18.4126 26.9707 18.8097 26.8521C19.5937 26.6097 20.7748 26.4601 22.0177 26.7438C23.2607 27.0326 24.2561 27.6773 24.8544 28.2395C25.1587 28.5231 25.3753 28.7758 25.5145 28.9615C25.6435 29.1472 25.7054 29.2606 25.6951 29.271Z"
        fill="#E0E0E0" />
    <path
        d="M25.5812 27.4184C25.5502 27.4442 25.2459 27.0316 24.627 26.5158C24.0133 26.0001 23.0437 25.3967 21.8471 25.1233C20.6506 24.85 19.5159 24.9634 18.7371 25.1594C17.9532 25.3554 17.5045 25.5926 17.4838 25.5565C17.4787 25.5411 17.5818 25.4689 17.7881 25.3606C17.9893 25.2523 18.2987 25.1182 18.6958 24.9995C19.4798 24.7571 20.6609 24.6076 21.9038 24.8912C23.1468 25.18 24.1422 25.8247 24.7405 26.3869C25.0448 26.6706 25.2614 26.9233 25.4007 27.109C25.5296 27.2946 25.5915 27.4081 25.5812 27.4184Z"
        fill="#E0E0E0" />
    <path
        d="M190.746 32.2517L190.777 33.5514C190.777 33.5514 183.67 31.184 179.704 33.6132C179.58 33.8866 179.332 34.0826 179.033 34.129L177.337 34.4127C176.97 34.4642 176.604 34.2837 176.424 33.9588C176.424 33.9588 172.2 32.3393 168.161 34.882L166.619 35.7278L168.491 19.0535L187.889 13.7773L190.746 32.2517Z"
        fill="#7B20F9" />
    <path
        d="M191.711 30.3489L191.824 32.6904C191.824 32.6904 184.697 29.1369 178.183 33.8612L179.065 22.5249C179.065 22.5249 191.009 28.0125 191.711 30.3489Z"
        fill="#EBEBEB" />
    <path
        d="M191.711 13.3698C191.711 13.3698 183.051 7.70171 177.538 16.9595L178.182 33.8556C178.182 33.8556 185.083 25.6912 192.51 30.792L191.711 13.3698Z"
        fill="#F5F5F5" />
    <path
        d="M178.182 33.8558C178.182 33.8558 170.786 29.8948 166.052 35.0523L166.351 19.5539L177.558 17.5425L178.182 33.8558Z"
        fill="#EBEBEB" />
    <path
        d="M177.548 16.9749C177.548 16.9749 174.371 12.6736 168.533 13.2357L164.665 13.7876L163.891 29.3788C163.891 29.3788 173.731 27.3829 178.193 33.8711L177.548 16.9749Z"
        fill="#F5F5F5" />
    <path
        d="M178.182 33.856C178.203 33.856 178.208 33.6187 178.203 33.1907C178.193 32.7058 178.182 32.1024 178.167 31.3855C178.115 29.8021 178.048 27.7288 177.971 25.4337C177.894 23.1386 177.827 21.0653 177.775 19.4819C177.749 18.765 177.734 18.1616 177.718 17.6768C177.703 17.2487 177.682 17.0166 177.667 17.0166C177.646 17.0166 177.631 17.2538 177.615 17.6768C177.594 18.1048 177.589 18.7186 177.584 19.4819C177.579 21.0085 177.62 23.1128 177.698 25.444C177.775 27.7701 177.878 29.8744 177.971 31.3958C178.017 32.1591 178.059 32.7729 178.095 33.1958C178.136 33.6239 178.162 33.856 178.182 33.856Z"
        fill="#E0E0E0" />
    <path
        d="M168.249 15.7527C168.259 15.7991 168.775 15.665 169.611 15.6135C170.446 15.5619 171.622 15.6444 172.839 16.0467C174.051 16.4593 175.042 17.0988 175.676 17.6455C176.315 18.1922 176.64 18.61 176.682 18.5791C176.697 18.5687 176.625 18.4553 176.486 18.2593C176.346 18.0633 176.119 17.8003 175.805 17.5011C175.186 16.9029 174.18 16.2066 172.927 15.7837C171.669 15.3659 170.451 15.3092 169.595 15.4175C169.167 15.4691 168.827 15.5361 168.595 15.6135C168.368 15.6857 168.244 15.7321 168.249 15.7527Z"
        fill="#E0E0E0" />
    <path
        d="M167.95 17.5369C167.96 17.5833 168.476 17.4492 169.311 17.3977C170.147 17.3461 171.323 17.4286 172.54 17.8309C173.752 18.2435 174.742 18.883 175.377 19.4297C176.016 19.9764 176.341 20.3942 176.382 20.3632C176.398 20.3529 176.326 20.2395 176.186 20.0435C176.047 19.8475 175.82 19.5845 175.506 19.2853C174.887 18.687 173.881 17.9908 172.628 17.5679C171.369 17.1501 170.152 17.0934 169.296 17.2017C168.868 17.2532 168.528 17.3203 168.295 17.3977C168.068 17.4699 167.945 17.5163 167.95 17.5369Z"
        fill="#E0E0E0" />
    <path
        d="M167.991 19.4554C168.002 19.5018 168.517 19.3677 169.353 19.3161C170.188 19.2645 171.364 19.3471 172.582 19.7493C173.794 20.1619 174.784 20.8015 175.418 21.3482C176.058 21.8949 176.383 22.3126 176.424 22.2817C176.439 22.2714 176.367 22.1579 176.228 21.9619C176.089 21.7659 175.862 21.5029 175.547 21.2038C174.928 20.6055 173.923 19.9092 172.669 19.4863C171.411 19.0685 170.194 19.0118 169.337 19.1201C168.909 19.1717 168.569 19.2387 168.337 19.3161C168.11 19.3935 167.986 19.4399 167.991 19.4554Z"
        fill="#E0E0E0" />
    <path
        d="M167.764 21.261C167.775 21.3074 168.29 21.1734 169.126 21.1218C169.961 21.0702 171.137 21.1527 172.355 21.555C173.567 21.9676 174.557 22.6071 175.191 23.1538C175.831 23.7005 176.156 24.1183 176.197 24.0874C176.212 24.077 176.14 23.9636 176.001 23.7676C175.862 23.5716 175.635 23.3086 175.32 23.0094C174.701 22.4112 173.695 21.7149 172.442 21.292C171.184 20.8742 169.967 20.8175 169.11 20.9258C168.682 20.9774 168.342 21.0444 168.11 21.1218C167.883 21.194 167.759 21.2404 167.764 21.261Z"
        fill="#E0E0E0" />
    <path
        d="M167.491 23.1643C167.501 23.2108 168.017 23.0767 168.853 23.0251C169.688 22.9735 170.864 23.056 172.081 23.4583C173.293 23.8709 174.283 24.5105 174.918 25.0572C175.557 25.6039 175.882 26.0216 175.924 25.9907C175.939 25.9804 175.867 25.8669 175.728 25.6709C175.588 25.4749 175.361 25.2119 175.047 24.9128C174.428 24.3145 173.422 23.6182 172.169 23.1953C170.91 22.7775 169.693 22.7208 168.837 22.8291C168.409 22.8807 168.069 22.9477 167.837 23.0251C167.61 23.0973 167.486 23.1437 167.491 23.1643Z"
        fill="#E0E0E0" />
    <path
        d="M167.104 25.2992C167.114 25.3457 167.671 25.1961 168.589 25.16C169.048 25.1291 169.59 25.1652 170.193 25.2219C170.792 25.2993 171.447 25.423 172.117 25.619C172.782 25.8253 173.401 26.078 173.943 26.3462C174.474 26.6351 174.943 26.9136 175.299 27.2024C176.027 27.7594 176.372 28.2184 176.413 28.1875C176.429 28.1772 176.351 28.0534 176.192 27.8471C176.119 27.7388 176.011 27.6201 175.877 27.486C175.748 27.352 175.598 27.1972 175.418 27.0528C175.067 26.7382 174.598 26.4339 174.062 26.1245C173.515 25.8356 172.88 25.5674 172.2 25.3611C171.514 25.16 170.838 25.0414 170.224 24.9743C169.605 24.9279 169.048 24.9176 168.579 24.9743C168.347 24.9898 168.136 25.0259 167.955 25.062C167.769 25.0929 167.615 25.1239 167.491 25.1652C167.233 25.2322 167.099 25.2838 167.104 25.2992Z"
        fill="#E0E0E0" />
    <path
        d="M167.151 26.9859C167.161 27.0375 167.723 26.8828 168.641 26.8622C169.1 26.8415 169.647 26.8879 170.25 26.9602C170.848 27.0581 171.503 27.2026 172.169 27.4243C172.834 27.6513 173.443 27.9298 173.979 28.2134C174.505 28.5177 174.969 28.8066 175.32 29.1005C176.042 29.673 176.393 30.132 176.434 30.0959C176.45 30.0856 176.372 29.9618 176.212 29.7504C176.135 29.6421 176.032 29.5235 175.903 29.3894C175.779 29.2501 175.63 29.1005 175.449 28.9458C175.103 28.626 174.639 28.3063 174.108 27.9865C173.567 27.6822 172.942 27.3934 172.262 27.1613C171.581 26.9395 170.91 26.7951 170.291 26.7074C169.673 26.6455 169.11 26.6146 168.641 26.6662C168.404 26.6765 168.198 26.7074 168.012 26.7435C167.826 26.7693 167.671 26.8054 167.543 26.8467C167.285 26.9189 167.145 26.9653 167.151 26.9859Z"
        fill="#E0E0E0" />
    <path
        d="M180.23 29.3433C180.271 29.3691 180.586 28.8637 181.266 28.2035C181.937 27.5433 183.02 26.7594 184.392 26.3262C185.769 25.8981 187.105 25.929 188.028 26.0941C188.961 26.2539 189.508 26.4912 189.529 26.4448C189.534 26.4293 189.405 26.3519 189.157 26.2436C188.91 26.1353 188.539 26.0064 188.064 25.9032C187.125 25.6866 185.738 25.6196 184.304 26.0631C182.876 26.5067 181.772 27.3525 181.122 28.0642C180.792 28.4201 180.56 28.7347 180.415 28.9668C180.276 29.1989 180.214 29.333 180.23 29.3433Z"
        fill="#E0E0E0" />
    <path
        d="M180.199 27.1719C180.24 27.1977 180.555 26.6923 181.236 26.0321C181.906 25.3719 182.989 24.588 184.361 24.1548C185.738 23.7267 187.074 23.7576 187.997 23.9227C188.931 24.0826 189.477 24.3198 189.498 24.2734C189.503 24.2579 189.374 24.1806 189.127 24.0722C188.879 23.9639 188.508 23.835 188.033 23.7318C187.094 23.5152 185.707 23.4482 184.273 23.8917C182.845 24.3353 181.741 25.1811 181.091 25.8929C180.761 26.2487 180.529 26.5633 180.385 26.7954C180.245 27.0224 180.183 27.1616 180.199 27.1719Z"
        fill="#E0E0E0" />
    <path
        d="M180.168 24.9947C180.21 25.0205 180.524 24.515 181.205 23.8549C181.875 23.1947 182.959 22.4108 184.33 21.9775C185.708 21.5494 187.043 21.5804 187.967 21.7454C188.9 21.9053 189.447 22.1426 189.467 22.0961C189.473 22.0807 189.344 22.0033 189.096 21.895C188.848 21.7867 188.477 21.6578 188.003 21.5546C187.064 21.338 185.677 21.2709 184.243 21.7145C182.814 22.158 181.71 23.0039 181.061 23.7156C180.731 24.0715 180.498 24.3861 180.354 24.6182C180.215 24.8503 180.153 24.9844 180.168 24.9947Z"
        fill="#E0E0E0" />
    <path
        d="M180.132 22.8238C180.173 22.8496 180.488 22.3441 181.169 21.684C181.839 21.0238 182.922 20.2399 184.294 19.8066C185.671 19.3785 187.007 19.4095 187.93 19.5745C188.864 19.7344 189.411 19.9717 189.431 19.9252C189.436 19.9098 189.307 19.8324 189.06 19.7241C188.812 19.6158 188.441 19.4869 187.966 19.3837C187.028 19.1671 185.64 19.1 184.207 19.5436C182.778 19.9871 181.674 20.833 181.024 21.5447C180.694 21.9006 180.462 22.2152 180.318 22.4473C180.184 22.6742 180.122 22.8135 180.132 22.8238Z"
        fill="#E0E0E0" />
    <path
        d="M180.101 20.647C180.142 20.6728 180.457 20.1674 181.138 19.5072C181.808 18.847 182.891 18.0631 184.263 17.6299C185.64 17.2018 186.976 17.2327 187.899 17.3978C188.833 17.5577 189.379 17.7949 189.4 17.7485C189.405 17.733 189.276 17.6557 189.029 17.5473C188.781 17.439 188.41 17.3101 187.935 17.2069C186.997 16.9903 185.609 16.9233 184.176 17.3668C182.747 17.8104 181.643 18.6562 180.993 19.368C180.663 19.7238 180.431 20.0384 180.287 20.2705C180.153 20.5026 180.086 20.6367 180.101 20.647Z"
        fill="#E0E0E0" />
    <path
        d="M180.07 18.4756C180.111 18.5014 180.426 17.996 181.106 17.3358C181.777 16.6757 182.86 15.8917 184.232 15.4585C185.609 15.0304 186.945 15.0613 187.868 15.2264C188.802 15.3863 189.348 15.6235 189.369 15.5771C189.374 15.5616 189.245 15.4843 188.998 15.376C188.75 15.2676 188.379 15.1387 187.904 15.0356C186.965 14.8189 185.578 14.7519 184.144 15.1954C182.716 15.639 181.612 16.4848 180.962 17.1966C180.632 17.5524 180.4 17.867 180.256 18.0991C180.116 18.3312 180.054 18.4653 180.07 18.4756Z"
        fill="#E0E0E0" />
    <path
        d="M206.621 217.959C206.621 217.985 160.363 218 103.316 218C46.2477 218 0 217.98 0 217.959C0 217.933 46.2477 217.918 103.316 217.918C160.363 217.913 206.621 217.933 206.621 217.959Z"
        fill="#263238" />
    <path d="M166.222 123.55H143.611V150.431H166.222V123.55Z" fill="#F5F5F5" />
    <path d="M144.39 121.802H42.2041V152.128H144.39V121.802Z" fill="#7B20F9" />
    <path
        d="M166.908 124.349H141.652V121.801H166.908C167.615 121.801 168.182 122.374 168.182 123.075C168.182 123.777 167.615 124.349 166.908 124.349Z"
        fill="#7B20F9" />
    <path
        d="M166.908 152.123H141.652V149.575H166.908C167.615 149.575 168.182 150.148 168.182 150.849C168.182 151.556 167.615 152.123 166.908 152.123Z"
        fill="#7B20F9" />
    <g opacity="0.4">
        <path opacity="0.4" d="M136.36 121.801H124.286V152.128H136.36V121.801Z" fill="black" />
    </g>
    <g opacity="0.4">
        <path opacity="0.4" d="M63.345 121.801H51.2712V152.128H63.345V121.801Z" fill="black" />
    </g>
    <path
        d="M166.223 128.001C166.223 128.073 161.328 128.135 155.294 128.135C149.254 128.135 144.365 128.073 144.365 128.001C144.365 127.929 149.259 127.867 155.294 127.867C161.328 127.867 166.223 127.923 166.223 128.001Z"
        fill="#E0E0E0" />
    <path
        d="M166.223 132.029C166.223 132.101 161.328 132.163 155.294 132.163C149.254 132.163 144.365 132.101 144.365 132.029C144.365 131.956 149.259 131.895 155.294 131.895C161.328 131.895 166.223 131.956 166.223 132.029Z"
        fill="#E0E0E0" />
    <path
        d="M166.223 136.99C166.223 137.062 161.328 137.124 155.294 137.124C149.254 137.124 144.365 137.062 144.365 136.99C144.365 136.918 149.259 136.856 155.294 136.856C161.328 136.856 166.223 136.918 166.223 136.99Z"
        fill="#E0E0E0" />
    <path
        d="M166.223 141.957C166.223 142.029 161.328 142.091 155.294 142.091C149.254 142.091 144.365 142.029 144.365 141.957C144.365 141.885 149.259 141.823 155.294 141.823C161.328 141.823 166.223 141.879 166.223 141.957Z"
        fill="#E0E0E0" />
    <path
        d="M166.223 146.918C166.223 146.99 161.328 147.052 155.294 147.052C149.254 147.052 144.365 146.99 144.365 146.918C144.365 146.846 149.259 146.784 155.294 146.784C161.328 146.784 166.223 146.846 166.223 146.918Z"
        fill="#E0E0E0" />
    <g opacity="0.2">
        <path opacity="0.2" d="M117.793 134.262H71.8185V139.724H117.793V134.262Z" fill="black" />
    </g>
    <path d="M165.99 152.722H143.034V169.102H165.99V152.722Z" fill="#FAFAFA" />
    <path d="M143.292 152.123H45.5874V169.69H143.292V152.123Z" fill="#FCCE5C" />
    <path
        d="M143.292 153.315H167.274C167.594 153.315 167.852 153.046 167.852 152.722C167.852 152.391 167.594 152.128 167.274 152.128H143.292V153.315Z"
        fill="#AD9142" />
    <path
        d="M143.292 169.695H167.259C167.589 169.695 167.852 169.426 167.852 169.101C167.852 168.771 167.584 168.508 167.259 168.508H143.292V169.695Z"
        fill="#AD9142" />
    <path
        d="M165.995 155.831C165.995 155.903 160.915 155.965 154.644 155.965C148.372 155.965 143.292 155.903 143.292 155.831C143.292 155.759 148.372 155.697 154.644 155.697C160.91 155.697 165.995 155.753 165.995 155.831Z"
        fill="#E0E0E0" />
    <path
        d="M165.995 158.931C165.995 159.003 160.915 159.065 154.644 159.065C148.372 159.065 143.292 159.003 143.292 158.931C143.292 158.859 148.372 158.797 154.644 158.797C160.91 158.797 165.995 158.854 165.995 158.931Z"
        fill="#E0E0E0" />
    <path
        d="M165.995 162.026C165.995 162.098 160.915 162.16 154.644 162.16C148.372 162.16 143.292 162.098 143.292 162.026C143.292 161.953 148.372 161.892 154.644 161.892C160.91 161.892 165.995 161.953 165.995 162.026Z"
        fill="#E0E0E0" />
    <path
        d="M165.995 165.126C165.995 165.198 160.915 165.26 154.644 165.26C148.372 165.26 143.292 165.198 143.292 165.126C143.292 165.054 148.372 164.992 154.644 164.992C160.91 164.992 165.995 165.054 165.995 165.126Z"
        fill="#E0E0E0" />
    <path d="M128.196 158.415H60.8177V163H128.196V158.415Z" fill="#D6B150" />
    <path d="M169.477 171.251H146.041V215.653H169.477V171.251Z" fill="#EBEBEB" />
    <path d="M146.041 169.694H36.0461V217.835H146.041V169.694Z" fill="#7B20F9" />
    <path
        d="M171.313 217.835H143.04V214.714H171.313C172.175 214.714 172.876 215.416 172.876 216.277C172.871 217.133 172.175 217.835 171.313 217.835Z"
        fill="#7B20F9" />
    <path
        d="M171.313 172.814H143.04V169.694H171.313C172.175 169.694 172.876 170.395 172.876 171.257C172.871 172.113 172.175 172.814 171.313 172.814Z"
        fill="#7B20F9" />
    <g opacity="0.4">
        <path opacity="0.4" d="M122.384 169.694L99.2469 217.834H118.794L140.729 169.694H122.384Z" fill="white" />
    </g>
    <g opacity="0.4">
        <path opacity="0.4" d="M85.8887 169.694L62.752 217.834H82.299L104.234 169.694H85.8887Z" fill="white" />
    </g>
    <path
        d="M169.477 177.203C169.477 177.276 164.232 177.338 157.759 177.338C151.286 177.338 146.041 177.276 146.041 177.203C146.041 177.131 151.286 177.069 157.759 177.069C164.232 177.069 169.477 177.131 169.477 177.203Z"
        fill="#E0E0E0" />
    <path
        d="M169.477 182.898C169.477 182.97 164.232 183.032 157.759 183.032C151.286 183.032 146.041 182.97 146.041 182.898C146.041 182.826 151.286 182.764 157.759 182.764C164.232 182.764 169.477 182.826 169.477 182.898Z"
        fill="#E0E0E0" />
    <path
        d="M169.477 188.596C169.477 188.669 164.232 188.731 157.759 188.731C151.286 188.731 146.041 188.669 146.041 188.596C146.041 188.524 151.286 188.462 157.759 188.462C164.232 188.462 169.477 188.519 169.477 188.596Z"
        fill="#E0E0E0" />
    <path
        d="M169.477 194.29C169.477 194.363 164.232 194.424 157.759 194.424C151.286 194.424 146.041 194.363 146.041 194.29C146.041 194.218 151.286 194.156 157.759 194.156C164.232 194.156 169.477 194.213 169.477 194.29Z"
        fill="#E0E0E0" />
    <path
        d="M169.477 199.985C169.477 200.057 164.232 200.119 157.759 200.119C151.286 200.119 146.041 200.057 146.041 199.985C146.041 199.912 151.286 199.851 157.759 199.851C164.232 199.851 169.477 199.912 169.477 199.985Z"
        fill="#E0E0E0" />
    <path
        d="M169.477 205.679C169.477 205.751 164.232 205.813 157.759 205.813C151.286 205.813 146.041 205.751 146.041 205.679C146.041 205.606 151.286 205.544 157.759 205.544C164.232 205.544 169.477 205.606 169.477 205.679Z"
        fill="#E0E0E0" />
    <path
        d="M169.477 211.372C169.477 211.445 164.232 211.506 157.759 211.506C151.286 211.506 146.041 211.445 146.041 211.372C146.041 211.3 151.286 211.238 157.759 211.238C164.232 211.238 169.477 211.3 169.477 211.372Z"
        fill="#E0E0E0" />
    <path
        d="M149.069 50.8595L154.097 42.6745C154.788 41.5502 154.133 40.0854 152.839 39.8482L139.95 37.4757C138.712 37.2488 137.459 37.8161 136.819 38.9044L129.212 51.7931C128.325 53.2991 129.212 55.2228 130.929 55.5271L142.183 57.5231C143.452 57.75 144.741 57.2085 145.463 56.1409L149.069 50.8595Z"
        fill="#455A64" />
    <g opacity="0.3">
        <path opacity="0.3"
            d="M143.823 49.038C144.61 47.7863 144.383 46.2286 143.317 45.5588C142.251 44.889 140.749 45.3608 139.963 46.6125C139.176 47.8642 139.403 49.4219 140.469 50.0917C141.535 50.7615 143.037 50.2897 143.823 49.038Z"
            fill="white" />
    </g>
    <path
        d="M73.294 197.927L78.2091 191.506L78.4618 191.17L86.8377 197.401L79.0807 205.921L79.3644 214.544C83.6864 215.664 84.3311 217.819 84.3311 217.819L75.3518 217.809L67.1978 202.099L73.294 197.927Z"
        fill="#455A64" />
    <path
        d="M67.203 202.105L75.3571 217.815L84.3364 217.825C84.1301 217.33 83.7897 216.881 83.3255 216.474L76.0224 216.066L68.4924 201.218L67.203 202.105Z"
        fill="#EBEBEB" />
    <path
        d="M79.313 210.599C79.2459 210.692 78.7302 210.398 78.0339 210.413C77.3376 210.413 76.827 210.723 76.76 210.63C76.6775 210.563 77.1829 210.027 78.0288 210.016C78.8746 210.006 79.3955 210.527 79.313 210.599Z"
        fill="#263238" />
    <path
        d="M79.1688 208.459C79.0811 208.521 78.6788 207.989 77.9619 207.85C77.245 207.701 76.6725 208.036 76.6158 207.943C76.5849 207.902 76.688 207.752 76.9407 207.613C77.1883 207.474 77.5957 207.371 78.0393 207.458C78.4828 207.546 78.8181 207.804 78.9934 208.026C79.1739 208.258 79.2152 208.433 79.1688 208.459Z"
        fill="#263238" />
    <path
        d="M79.2306 205.709C79.1326 205.761 78.8283 205.24 78.1991 205.023C77.5751 204.797 77.0129 205.008 76.9665 204.91C76.9407 204.864 77.0542 204.74 77.3069 204.647C77.5493 204.554 77.9412 204.513 78.3332 204.652C78.7252 204.791 79.0037 205.065 79.1326 205.292C79.2667 205.524 79.2771 205.694 79.2306 205.709Z"
        fill="#263238" />
    <path
        d="M81.6339 203.584C81.5256 203.621 81.2729 203.11 80.7159 202.749C80.1692 202.372 79.6019 202.331 79.5967 202.223C79.5658 202.12 80.262 201.965 80.9377 202.424C81.6185 202.873 81.7422 203.569 81.6339 203.584Z"
        fill="#263238" />
    <path
        d="M82.8097 201.738C82.7633 201.769 82.4693 201.408 82.0258 200.8C81.7782 200.444 81.5255 200.088 81.2676 199.722C81.1387 199.51 80.9582 199.33 80.8499 198.995C80.8034 198.829 80.8086 198.628 80.9066 198.448C80.9994 198.257 81.2522 198.138 81.4481 198.164C81.8401 198.221 82.0567 198.422 82.2888 198.597C82.5106 198.788 82.6911 199 82.8355 199.221C83.1243 199.665 83.2584 200.129 83.3048 200.516C83.3925 201.31 83.1295 201.764 83.0985 201.743C83.0315 201.728 83.1759 201.269 83.0263 200.562C82.949 200.212 82.7994 199.809 82.5312 199.428C82.3971 199.237 82.2321 199.056 82.0361 198.897C81.8453 198.742 81.6029 198.577 81.4172 198.556C81.3295 198.551 81.2831 198.577 81.247 198.639C81.2109 198.706 81.2006 198.804 81.2212 198.891C81.2676 199.082 81.443 199.304 81.5668 199.515C81.7988 199.897 82.0309 200.274 82.2527 200.64C82.6395 201.295 82.851 201.713 82.8097 201.738Z"
        fill="#263238" />
    <path
        d="M83.1298 202.007C83.0885 202.002 83.1195 201.533 83.6094 200.991C84.0839 200.48 85.1206 199.934 86.2707 200.511C86.3532 200.584 86.4151 200.707 86.41 200.831C86.4048 200.955 86.3532 201.048 86.3016 201.115C86.1933 201.254 86.0799 201.321 85.9819 201.398C85.7756 201.543 85.559 201.667 85.3475 201.759C84.9246 201.955 84.512 202.048 84.1664 202.09C83.4702 202.162 83.0472 202.028 83.0576 201.986C83.0627 201.925 83.4805 201.955 84.12 201.816C84.4398 201.744 84.8111 201.631 85.1876 201.435C85.3785 201.337 85.5693 201.223 85.7549 201.084C85.8478 201.012 85.9458 200.945 85.987 200.883C86.0335 200.805 86.018 200.826 86.0025 200.805C85.9716 200.774 85.8529 200.733 85.7446 200.707C85.6363 200.682 85.5229 200.661 85.4094 200.656C85.1876 200.64 84.971 200.656 84.7699 200.702C84.3676 200.79 84.0375 200.986 83.8002 201.192C83.3206 201.62 83.1865 202.033 83.1298 202.007Z"
        fill="#263238" />
    <path
        d="M74.3668 201.836C74.3668 202.424 73.8923 202.904 73.2992 202.904C72.7112 202.904 72.2316 202.429 72.2316 201.836C72.2316 201.248 72.7061 200.769 73.2992 200.769C73.8871 200.769 74.3668 201.248 74.3668 201.836Z"
        fill="#EBEBEB" />
    <g opacity="0.3">
        <path opacity="0.3" d="M86.0591 198.262L84.3365 200.155L77.085 192.975L78.0958 191.66L86.0591 198.262Z"
            fill="black" />
    </g>
    <path
        d="M108.442 201.192L107.524 212.111C107.524 212.111 118.314 215.793 118.34 217.826L97.1061 217.722L97.8384 200.651L108.442 201.192Z"
        fill="#455A64" />
    <path
        d="M101 210.873C100.582 210.966 100.278 211.414 100.355 211.832C100.433 212.25 100.887 212.57 101.304 212.482C101.722 212.394 102.104 211.868 101.985 211.461C101.861 211.053 101.31 210.713 100.928 210.893"
        fill="#EBEBEB" />
    <path
        d="M97.1061 217.728L97.1783 216.026L117.282 216.511C117.282 216.511 118.35 217.362 118.34 217.831L97.1061 217.728Z"
        fill="#EBEBEB" />
    <path
        d="M107.87 212.017C107.86 212.121 107.339 212.141 106.813 212.451C106.276 212.745 105.993 213.183 105.9 213.137C105.807 213.111 105.988 212.497 106.632 212.136C107.277 211.77 107.901 211.925 107.87 212.017Z"
        fill="#263238" />
    <path
        d="M110.057 213.049C110.077 213.152 109.618 213.307 109.247 213.725C108.86 214.137 108.752 214.607 108.649 214.596C108.551 214.607 108.51 213.998 108.984 213.482C109.443 212.961 110.057 212.946 110.057 213.049Z"
        fill="#263238" />
    <path
        d="M111.191 215.773C111.099 215.788 110.975 215.267 111.269 214.71C111.558 214.153 112.058 213.952 112.099 214.04C112.156 214.127 111.826 214.416 111.588 214.875C111.346 215.334 111.295 215.768 111.191 215.773Z"
        fill="#263238" />
    <path
        d="M107.803 209.506C107.757 209.598 107.287 209.433 106.699 209.444C106.111 209.444 105.647 209.619 105.596 209.526C105.539 209.449 106.003 209.088 106.694 209.083C107.39 209.072 107.86 209.428 107.803 209.506Z"
        fill="#263238" />
    <path
        d="M107.947 207.304C107.947 207.345 107.535 207.392 106.885 207.247C106.56 207.175 106.183 207.051 105.786 206.85C105.59 206.752 105.389 206.634 105.193 206.494C105.1 206.427 104.987 206.36 104.884 206.231C104.775 206.118 104.724 205.839 104.863 205.679C104.982 205.52 105.178 205.463 105.327 205.463C105.482 205.463 105.611 205.504 105.724 205.535C105.956 205.602 106.178 205.695 106.374 205.793C106.771 205.999 107.091 206.247 107.323 206.484C107.792 206.964 107.942 207.361 107.906 207.376C107.86 207.407 107.633 207.072 107.148 206.67C106.905 206.469 106.596 206.262 106.225 206.092C106.039 206.01 105.838 205.932 105.621 205.875C105.399 205.803 105.209 205.793 105.147 205.891C105.126 205.927 105.121 205.943 105.162 206.01C105.209 206.071 105.296 206.139 105.389 206.206C105.57 206.34 105.755 206.453 105.936 206.551C106.297 206.752 106.648 206.897 106.947 206.995C107.555 207.196 107.952 207.247 107.947 207.304Z"
        fill="#263238" />
    <path
        d="M107.808 207.443C107.772 207.459 107.581 207.077 107.576 206.402C107.576 206.066 107.628 205.664 107.777 205.246C107.855 205.035 107.953 204.823 108.082 204.612C108.216 204.406 108.381 204.132 108.788 204.106C109 204.106 109.165 204.282 109.216 204.426C109.278 204.571 109.288 204.7 109.309 204.823C109.335 205.071 109.319 205.318 109.273 205.54C109.185 205.989 108.979 206.355 108.768 206.618C108.324 207.149 107.886 207.253 107.88 207.216C107.85 207.165 108.221 206.979 108.561 206.469C108.731 206.216 108.886 205.881 108.948 205.484C108.979 205.288 108.984 205.081 108.958 204.87C108.938 204.643 108.86 204.457 108.773 204.478C108.67 204.473 108.479 204.633 108.386 204.808C108.267 204.994 108.169 205.184 108.097 205.37C107.948 205.747 107.87 206.113 107.839 206.422C107.772 207.036 107.865 207.433 107.808 207.443Z"
        fill="#263238" />
    <path
        d="M151.503 54.2949C151.709 53.6812 151.684 53.0159 151.431 52.4176C150.549 50.3339 148.486 45.7076 147.743 45.8417C147.083 45.9603 146.593 47.2188 147.346 48.6062L144.917 46.538C144.422 46.1151 143.658 46.538 143.767 47.1775C143.808 47.4354 143.901 47.7397 144.066 48.0853C144.819 49.6841 146.913 51.2004 146.913 51.2004L142.684 51.2262C142.684 51.2262 141.895 52.3299 143.344 53.0726C143.669 53.2376 144.03 53.3305 144.396 53.3666L146.583 53.5884C146.583 53.5884 142.632 57.9568 142.498 58.3642C142.199 59.2823 142.147 60.3757 142.147 60.3757L134.566 68.8134L136.593 81.6351L150.291 57.931L151.503 54.2949Z"
        fill="#B78876" />
    <path
        d="M150.404 52.3659C150.368 52.3917 150.229 52.1906 149.93 51.9637C149.636 51.7367 149.156 51.5046 148.594 51.4015C148.027 51.3035 147.49 51.319 147.104 51.319C146.717 51.3241 146.469 51.319 146.469 51.2829C146.464 51.2468 146.701 51.1849 147.093 51.1333C147.48 51.0817 148.037 51.0301 148.646 51.1385C149.254 51.2468 149.77 51.5304 150.059 51.8192C150.348 52.1081 150.43 52.3556 150.404 52.3659Z"
        fill="#AA6550" />
    <path
        d="M150.472 51.0451C150.425 51.1019 149.657 50.5758 148.749 49.8589C147.846 49.1472 147.15 48.5231 147.191 48.4612C147.238 48.4045 148.006 48.9306 148.914 49.6475C149.822 50.3644 150.518 50.9884 150.472 51.0451Z"
        fill="#AA6550" />
    <path
        d="M113.079 114.272C113.192 114.288 113.584 139.524 113.76 150.927C113.811 154.511 112.888 158.044 111.088 161.144L86.4094 204.503L72.2365 192.703L95.1617 153.965L86.724 113.127L103.434 98.7583L113.079 114.272Z"
        fill="#263238" />
    <path
        d="M125.07 109.109C124.998 110.564 111.665 204.287 111.665 204.287L95.1561 203.106L101.211 108.521L125.07 109.109Z"
        fill="#263238" />
    <path
        d="M111.248 115.685C111.248 115.685 111.264 115.767 111.279 115.932C111.295 116.107 111.32 116.345 111.346 116.654C111.403 117.304 111.48 118.238 111.583 119.434C111.774 121.863 112.048 125.36 112.388 129.672C112.708 133.999 113.089 139.146 113.512 144.861C113.605 146.289 113.703 147.759 113.801 149.255C113.837 150.003 113.904 150.766 113.879 151.535C113.858 152.308 113.786 153.082 113.652 153.856C113.394 155.408 112.904 156.945 112.218 158.415C111.877 159.152 111.465 159.859 111.073 160.571C110.676 161.282 110.273 161.999 109.871 162.721C103.409 174.264 97.5652 184.713 93.3257 192.29C91.2008 196.06 89.4833 199.113 88.2868 201.233C87.6937 202.28 87.2243 203.095 86.9046 203.657C86.7499 203.925 86.6261 204.131 86.5384 204.286C86.4559 204.425 86.4043 204.497 86.4043 204.497C86.4043 204.497 86.4352 204.42 86.5126 204.276C86.5951 204.121 86.7086 203.909 86.853 203.636C87.1625 203.064 87.6163 202.244 88.194 201.186C89.375 199.056 91.0667 195.988 93.1607 192.202C97.3847 184.615 103.208 174.156 109.639 162.598C110.041 161.876 110.444 161.159 110.841 160.447C111.238 159.73 111.645 159.034 111.981 158.307C112.661 156.857 113.141 155.346 113.394 153.819C113.523 153.056 113.6 152.293 113.615 151.535C113.641 150.776 113.574 150.023 113.538 149.276C113.44 147.78 113.347 146.315 113.254 144.887C112.852 139.172 112.491 134.025 112.192 129.698C111.888 125.381 111.64 121.884 111.47 119.455C111.393 118.253 111.331 117.32 111.284 116.67C111.269 116.36 111.253 116.118 111.243 115.942C111.248 115.772 111.248 115.685 111.248 115.685Z"
        fill="#455A64" />
    <path
        d="M99.9685 160.009C99.9634 160.024 99.8448 160.009 99.6333 159.952C99.4218 159.906 99.1227 159.797 98.772 159.632C98.0654 159.302 97.1628 158.652 96.4408 157.693C95.7239 156.729 95.3577 155.682 95.2391 154.908C95.1772 154.521 95.1566 154.207 95.172 153.99C95.1824 153.773 95.1978 153.655 95.2133 153.655C95.2597 153.655 95.2597 154.134 95.4248 154.872C95.5846 155.61 95.9663 156.605 96.6523 157.533C97.3485 158.456 98.1944 159.101 98.8545 159.462C99.5198 159.828 99.9789 159.962 99.9685 160.009Z"
        fill="#455A64" />
    <path
        d="M101.835 157.188C101.835 157.213 101.376 157.275 100.634 157.182C99.8962 157.095 98.8853 156.811 97.8951 156.233C96.91 155.651 96.1673 154.908 95.7289 154.31C95.2853 153.706 95.11 153.278 95.1358 153.268C95.177 153.247 95.4091 153.639 95.8733 154.191C96.3375 154.748 97.075 155.439 98.0291 156.001C98.9833 156.558 99.9478 156.858 100.665 156.997C101.376 157.131 101.835 157.141 101.835 157.188Z"
        fill="#455A64" />
    <path
        d="M90.2003 117.041C90.2209 117.026 90.3137 117.191 90.5974 117.315C90.8759 117.444 91.3556 117.485 91.8507 117.227C92.3458 116.98 92.877 116.531 93.4753 116.067C94.0684 115.592 94.7028 115.051 95.3372 114.447C96.6162 113.251 97.6478 112.044 98.3647 111.146C99.0764 110.244 99.4838 109.661 99.5199 109.682C99.5354 109.692 99.4529 109.847 99.2827 110.125C99.1125 110.399 98.8546 110.791 98.5142 111.26C97.8334 112.193 96.8122 113.431 95.5229 114.643C94.8782 115.252 94.2335 115.793 93.63 116.258C93.0163 116.717 92.4799 117.145 91.928 117.392C91.3762 117.645 90.8346 117.573 90.5458 117.403C90.2518 117.237 90.19 117.041 90.2003 117.041Z"
        fill="#455A64" />
    <path
        d="M99.3909 116.278C99.4219 116.293 99.2001 116.861 98.7411 117.732C98.2769 118.594 97.5445 119.79 96.3635 120.77C95.1772 121.75 93.7744 122.158 92.7738 122.142C92.2735 122.142 91.8712 122.065 91.6082 121.977C91.3452 121.889 91.2059 121.817 91.2111 121.807C91.2265 121.755 91.799 122.003 92.7687 121.956C93.728 121.92 95.0534 121.508 96.1933 120.569C97.3279 119.625 98.0706 118.475 98.576 117.645C99.0712 116.799 99.3548 116.257 99.3909 116.278Z"
        fill="#455A64" />
    <path
        d="M125.07 109.11C125.07 109.11 112.326 115.056 107.762 113.009C103.192 110.961 100.201 106.237 96.8946 107.341C93.5886 108.444 88.5446 109.388 86.8116 114.112C86.8116 114.112 85.7131 113.122 85.7131 111.147C85.7131 109.311 87.2603 106.82 87.2603 106.82L85.187 85.5396L85.2747 49.7617C85.2747 49.7617 88.8231 44.4753 98.4316 44.7899L111.702 46.6982C111.702 46.6982 118.474 48.7457 120.367 52.2116C122.259 55.6774 121.465 80.3099 121.465 80.3099C121.465 80.3099 125.669 104.22 125.669 106.087C125.663 107.949 125.07 109.11 125.07 109.11Z"
        fill="#7B20F9" />
    <path
        d="M132.61 68.4378L127.138 73.3169L120.366 52.207L114.677 64.9204L116.967 85.5351C117.334 88.841 119.732 91.5642 122.966 92.3482C125.483 92.9568 128.139 92.2966 130.073 90.5791L135.854 85.6382C136.68 84.9316 137.082 83.8485 136.912 82.7758L134.761 69.2011C134.591 68.1903 133.374 67.757 132.61 68.4378Z"
        fill="#7B20F9" />
    <path
        d="M91.1801 62.7229C91.1801 63.1974 88.6375 86.2361 88.6375 86.2361L99.4116 109.548C98.3491 111.745 96.3583 113.741 94.1354 115.691C94.1354 115.691 91.3813 113.169 91.2214 107.815C91.2214 107.815 78.9774 93.4309 77.7138 89.6504C76.4553 85.8699 79.9212 60.0513 79.9212 60.0513L91.1801 62.7229Z"
        fill="#B78876" />
    <path
        d="M118.551 66.7354C118.567 66.7457 118.484 66.9107 118.33 67.2047C118.17 67.4987 117.932 67.9164 117.633 68.427C117.324 68.9376 117.004 69.5617 116.53 70.2115C116.287 70.5313 115.988 70.8511 115.601 71.0832C115.214 71.3153 114.755 71.4545 114.281 71.47C113.327 71.5113 112.46 71.1554 111.805 70.686C111.155 70.2064 110.696 69.6391 110.346 69.1543C110 68.6643 109.763 68.2465 109.598 67.9525C109.438 67.6586 109.361 67.4935 109.376 67.4832C109.417 67.4574 109.794 68.097 110.5 69.0356C110.861 69.4998 111.32 70.0362 111.95 70.4797C112.569 70.913 113.394 71.2327 114.265 71.1966C114.699 71.1812 115.111 71.0574 115.462 70.8511C115.813 70.6448 116.091 70.356 116.328 70.0568C116.793 69.4431 117.138 68.819 117.463 68.3239C117.783 67.8236 118.046 67.4213 118.232 67.1428C118.428 66.8746 118.536 66.725 118.551 66.7354Z"
        fill="#263238" />
    <path
        d="M126.489 85.8493C126.473 85.8544 126.396 85.6894 126.282 85.3799C126.159 85.0756 126.019 84.6166 125.875 84.0441C125.581 82.9043 125.349 81.2694 125.436 79.4642C125.529 77.6591 125.926 76.0551 126.334 74.9514C126.535 74.3944 126.726 73.956 126.875 73.6672C127.025 73.3732 127.113 73.2133 127.128 73.2236C127.169 73.2442 126.865 73.9044 126.509 75.0133C126.153 76.1222 125.792 77.7055 125.7 79.4797C125.612 81.2591 125.813 82.8631 126.055 84.0029C126.298 85.1479 126.535 85.8338 126.489 85.8493Z"
        fill="#263238" />
    <path
        d="M129.371 81.6246C129.346 81.64 129.062 81.2326 128.701 80.5157C128.34 79.804 127.917 78.7776 127.597 77.5965C127.283 76.4155 127.138 75.3117 127.097 74.5123C127.056 73.7129 127.092 73.2178 127.123 73.2178C127.164 73.2178 127.195 73.7077 127.283 74.4917C127.37 75.2756 127.546 76.3587 127.855 77.5192C128.165 78.6848 128.557 79.706 128.871 80.428C129.191 81.1655 129.407 81.6039 129.371 81.6246Z"
        fill="#263238" />
    <path
        d="M118.195 71.0574C118.206 71.0522 118.247 71.1296 118.314 71.2843C118.381 71.439 118.474 71.666 118.572 71.9703C118.758 72.5788 118.979 73.4969 118.907 74.6522C118.85 75.792 118.433 77.1948 117.396 78.3398C116.88 78.9071 116.22 79.4074 115.436 79.7169C114.652 80.0263 113.75 80.1089 112.873 79.9335C111.996 79.7581 111.191 79.3301 110.609 78.7112C110.026 78.0871 109.706 77.3135 109.52 76.5759C109.335 75.8333 109.268 75.1164 109.211 74.4459C109.159 73.7806 109.108 73.1616 109.067 72.5943C108.989 71.4906 108.922 70.5829 108.876 69.9072C108.86 69.6133 108.85 69.376 108.84 69.1749C108.834 69.0098 108.834 68.917 108.845 68.917C108.855 68.917 108.871 69.0047 108.896 69.1697C108.922 69.3657 108.948 69.6081 108.984 69.8969C109.056 70.5726 109.149 71.4751 109.262 72.5737C109.319 73.141 109.376 73.7599 109.443 74.4252C109.51 75.0854 109.587 75.7972 109.773 76.5089C109.959 77.2206 110.268 77.9478 110.815 78.5255C111.356 79.1031 112.115 79.5003 112.94 79.6653C113.765 79.8303 114.616 79.7581 115.354 79.4693C116.096 79.1857 116.731 78.7112 117.226 78.1748C118.231 77.0865 118.649 75.7456 118.732 74.6367C118.825 73.5175 118.634 72.6046 118.484 71.996C118.309 71.3926 118.175 71.0677 118.195 71.0574Z"
        fill="#263238" />
    <g opacity="0.2">
        <g opacity="0.2">
            <path opacity="0.2"
                d="M92.0929 93.7033C92.4023 91.6609 92.5828 90.7583 93.3255 88.8036C94.0682 86.8489 95.0327 84.9045 95.0636 82.8157C95.0842 81.5006 94.7284 80.206 94.3777 78.9373C93.1244 74.4244 91.8659 69.9064 90.6127 65.3936C90.4734 68.8955 90.329 72.3975 90.1897 75.8995C90.1536 76.7556 90.133 77.6685 90.5817 78.3957C91.1387 79.3034 92.2785 79.7006 92.9129 80.5567C93.3977 81.2117 93.5318 82.1143 93.2533 82.8776C92.9748 83.6461 92.2889 83.8421 91.4946 84.0329C90.9582 84.1618 90.9479 84.167 90.4012 84.2547C89.8597 84.3424 89.0809 84.2237 88.8333 84.7085C88.2092 85.9257 88.8746 86.6633 89.1376 87.2409C90.3341 89.9074 92.0929 93.7033 92.0929 93.7033Z"
                fill="black" />
        </g>
    </g>
    <path
        d="M87.4922 47.9312C87.4922 47.9312 76.388 53.5477 74.8407 83.5027C74.7324 85.5657 76.584 87.1852 78.6109 86.8035C83.165 85.9371 90.0658 84.6013 90.0245 84.4156C89.9626 84.1371 92.6136 58.0502 92.6136 58.0502L87.4922 47.9312Z"
        fill="#7B20F9" />
    <path
        d="M92.413 57.5854C92.4233 57.5854 92.4285 57.7247 92.4285 57.9877C92.4285 58.2508 92.4285 58.6376 92.413 59.1379C92.3924 60.1333 92.3356 61.5774 92.2118 63.3567C92.0932 65.1361 91.9127 67.2507 91.6651 69.5922C91.5362 70.763 91.397 71.9905 91.2525 73.2644C91.1752 73.8988 91.0978 74.5486 91.0153 75.2036C90.9586 75.8741 90.7368 76.5291 90.6336 77.1841C90.5872 77.509 90.5614 77.8391 90.6285 78.1382C90.6955 78.4322 90.8657 78.7211 91.0772 78.9428C91.5001 79.407 92.1293 79.6546 92.6193 80.1239C93.1247 80.5932 93.3517 81.2483 93.46 81.8672C93.5115 82.1818 93.5322 82.5015 93.4858 82.8161C93.4445 83.1308 93.331 83.4505 93.0938 83.6929C92.8565 83.9405 92.4955 83.9972 92.2325 84.0436C91.9488 84.0952 91.6755 84.1519 91.4021 84.2035C90.8554 84.3118 90.3242 84.4201 89.8136 84.5233C88.7924 84.7347 87.8331 84.9307 86.9615 85.1112C85.2389 85.4671 83.836 85.7611 82.8303 85.9674C82.5879 86.0138 82.3713 86.0602 82.1804 86.0963C82.0876 86.117 81.9999 86.1324 81.9226 86.1479L81.8916 86.1531H81.8864C81.8916 86.1685 81.8555 86.0345 81.871 86.0912H81.8761L81.8916 86.086L81.9483 86.0757C81.9844 86.0705 82.0154 86.0602 82.0515 86.0551C82.3094 86.0087 82.4435 85.988 82.4486 85.9932C82.4486 86.0035 82.3197 86.0396 82.0618 86.1067C82.0309 86.117 81.9948 86.1221 81.9587 86.1324L81.9019 86.1479L81.8864 86.1531H81.8813C81.8916 86.2098 81.8607 86.0757 81.8658 86.0912H81.871L81.9019 86.086C81.9844 86.0654 82.067 86.0448 82.1598 86.0241C82.3506 85.9777 82.5672 85.9261 82.8045 85.8694C83.8051 85.6425 85.2027 85.3227 86.9202 84.9307C87.7918 84.7399 88.746 84.5336 89.7672 84.3118C90.2829 84.2035 90.809 84.0952 91.3557 83.9817C91.629 83.925 91.9076 83.8734 92.1912 83.8167C92.4852 83.7651 92.7379 83.7187 92.9236 83.5279C93.2846 83.1411 93.3052 82.4964 93.2073 81.9239C93.0989 81.3411 92.8823 80.7428 92.4336 80.3302C91.9952 79.9073 91.3609 79.6597 90.876 79.144C90.6388 78.8809 90.448 78.5818 90.3654 78.2208C90.2829 77.8649 90.3139 77.5039 90.3654 77.1635C90.4738 76.4724 90.6904 75.8431 90.7471 75.1933C90.8296 74.5383 90.907 73.8884 90.9895 73.2541C91.1391 71.9802 91.2783 70.7578 91.4176 69.5871C91.6755 67.2455 91.8766 65.1361 92.021 63.3619C92.1654 61.5877 92.2531 60.1487 92.3047 59.1533C92.3305 58.6788 92.3511 58.2972 92.3666 58.0084C92.3872 57.7247 92.4027 57.5854 92.413 57.5854Z"
        fill="#263238" />
    <path
        d="M87.8432 75.952C87.8587 75.9572 87.838 76.081 87.7761 76.3079C87.7503 76.4214 87.7091 76.5606 87.642 76.7102C87.575 76.8649 87.5131 77.0454 87.4048 77.2208C87.214 77.5973 86.9303 78.0099 86.5589 78.4225C86.1824 78.8299 85.7131 79.2322 85.1716 79.5726C84.6197 79.9027 84.0524 80.1348 83.5212 80.2895C82.9848 80.4288 82.4845 80.501 82.0667 80.501C81.8553 80.5164 81.6696 80.4906 81.5046 80.4803C81.3395 80.47 81.2003 80.4442 81.0868 80.4184C80.8599 80.3669 80.7361 80.3359 80.7412 80.3153C80.7516 80.2637 81.2518 80.3669 82.0667 80.3153C82.4742 80.2947 82.9487 80.207 83.4593 80.0574C83.9699 79.8975 84.5114 79.6654 85.0426 79.3457C85.5636 79.0208 86.0174 78.6391 86.3888 78.2574C86.7498 77.8655 87.0438 77.4838 87.2501 77.1279C87.6575 76.4317 87.7916 75.9365 87.8432 75.952Z"
        fill="#263238" />
    <g opacity="0.2">
        <g opacity="0.2">
            <path opacity="0.2"
                d="M99.8087 102.678C104.971 105.736 111.289 106.469 117.226 105.566C118.2 105.417 119.191 105.221 120.057 104.746C120.924 104.272 121.656 103.467 121.837 102.497C122.012 101.523 121.501 100.409 120.568 100.094C119.624 99.7742 118.618 100.29 117.731 100.739C112.161 103.55 105.544 104.215 99.5302 102.575"
                fill="black" />
        </g>
    </g>
    <path
        d="M123.858 103.148C123.863 103.153 123.786 103.215 123.636 103.323C123.482 103.427 123.265 103.597 122.961 103.767C122.362 104.138 121.45 104.608 120.258 105.036C117.891 105.912 114.342 106.408 110.516 105.902C106.689 105.397 103.383 104.221 101.031 103.354C99.855 102.911 98.9111 102.534 98.2613 102.266C97.9621 102.137 97.7146 102.034 97.5134 101.951C97.3432 101.874 97.2556 101.833 97.2607 101.823C97.2659 101.812 97.3587 101.838 97.5341 101.9C97.7352 101.972 97.9879 102.06 98.2974 102.168C98.9937 102.421 99.9426 102.761 101.093 103.174C103.455 103.999 106.756 105.134 110.547 105.634C114.337 106.134 117.834 105.675 120.191 104.855C121.372 104.458 122.29 104.02 122.904 103.674C123.518 103.334 123.843 103.127 123.858 103.148Z"
        fill="#263238" />
    <g opacity="0.2">
        <g opacity="0.2">
            <path opacity="0.2"
                d="M123.564 92.4508C125.122 90.8984 125.127 88.1134 124.802 85.9369C124.477 83.7604 123.652 81.6819 123.358 79.5054C123.08 77.4372 123.281 75.333 123.188 73.2442C123.095 71.1554 122.646 68.9789 121.29 67.3955C120.485 75.792 121.264 84.338 123.564 92.4508Z"
                fill="black" />
        </g>
    </g>
    <g opacity="0.2">
        <g opacity="0.2">
            <path opacity="0.2"
                d="M108.917 69.7881C108.68 71.1651 108.902 72.5989 108.798 74.0018C108.695 75.4046 108.592 76.8281 108.814 78.2155C109.036 79.608 109.603 80.9851 110.655 81.9289C111.702 82.8676 113.286 83.2802 114.575 82.7232C115.88 82.161 116.669 80.6653 116.555 79.247C115.627 79.6854 114.58 79.9175 113.559 79.8143C112.533 79.7112 111.532 79.2625 110.841 78.4992C109.825 77.38 109.428 75.8276 109.33 74.3164C109.227 72.8156 109.041 71.2735 108.917 69.7881Z"
                fill="black" />
        </g>
    </g>
    <path
        d="M91.6857 65.9208C91.6857 65.9414 91.4897 65.9827 91.1286 66.0394C90.7676 66.1013 90.2467 66.1735 89.5969 66.2509C88.3023 66.3953 86.4765 66.5655 84.4806 66.2612C82.4846 65.9569 80.7929 65.1111 79.7924 64.2446C79.2869 63.8165 78.9362 63.4091 78.7248 63.1099C78.5133 62.8108 78.4153 62.6303 78.4308 62.62C78.4772 62.5839 78.895 63.2956 79.9162 64.095C80.9219 64.8996 82.5723 65.6939 84.527 65.993C86.4817 66.2921 88.2868 66.1529 89.5865 66.06C90.19 66.0085 90.7057 65.9672 91.1286 65.9311C91.4845 65.9105 91.6857 65.9053 91.6857 65.9208Z"
        fill="#FAFAFA" />
    <path
        d="M90.9584 69.8819C90.9635 69.8974 90.7675 69.9696 90.4117 70.0779C90.2312 70.1346 90.0145 70.1965 89.7515 70.2481C89.4936 70.2997 89.1945 70.377 88.8644 70.4131C88.2042 70.5215 87.4048 70.5782 86.5177 70.5679C85.6306 70.5421 84.661 70.4493 83.6553 70.2378C82.6547 70.016 81.7264 69.7014 80.9115 69.361C80.1017 69.0051 79.3952 68.6235 78.8382 68.2521C78.5493 68.0819 78.3121 67.8911 78.1006 67.7364C77.884 67.5817 77.7087 67.4372 77.5694 67.3083C77.2857 67.0607 77.1413 66.9215 77.1516 66.906C77.1826 66.8648 77.8066 67.4063 78.9413 68.0923C79.5035 68.4378 80.2049 68.7937 81.0095 69.1341C81.8192 69.459 82.7321 69.7633 83.712 69.9799C84.6971 70.1862 85.6513 70.2894 86.5229 70.3255C87.3945 70.3461 88.1836 70.31 88.8386 70.2275C90.1538 70.0676 90.9429 69.8303 90.9584 69.8819Z"
        fill="#FAFAFA" />
    <path
        d="M108.484 69.237C108.484 69.3092 104.739 69.2731 100.128 69.1544C95.5124 69.0358 91.7783 68.8811 91.7783 68.8037C91.7783 68.7315 95.5227 68.7676 100.134 68.8862C104.744 69.0049 108.484 69.1596 108.484 69.237Z"
        fill="#FAFAFA" />
    <path
        d="M109.02 73.3987C109.025 73.4142 108.783 73.4915 108.334 73.6153C107.891 73.7391 107.236 73.8887 106.426 74.0485C104.806 74.3683 102.532 74.6623 100.005 74.6932C97.4776 74.719 95.198 74.4715 93.5682 74.1826C92.7533 74.0434 92.0983 73.9041 91.6496 73.7907C91.2009 73.6772 90.9533 73.6102 90.9585 73.5895C90.9636 73.5689 91.2163 73.605 91.6702 73.6875C92.1241 73.77 92.7791 73.8783 93.594 73.997C95.2237 74.2342 97.4879 74.4508 99.9996 74.425C102.506 74.3941 104.77 74.1311 106.39 73.8629C107.2 73.7288 107.855 73.605 108.308 73.5122C108.762 73.4245 109.015 73.3832 109.02 73.3987Z"
        fill="#FAFAFA" />
    <path
        d="M118.706 72.635C118.722 72.6402 118.67 72.7846 118.536 73.0167C118.402 73.2539 118.154 73.5634 117.778 73.8728C117.035 74.4969 115.689 75.0075 114.198 74.8527C112.713 74.6929 111.501 74.0688 110.681 73.5995C109.856 73.1198 109.381 72.7639 109.402 72.7382C109.423 72.7021 109.933 73.0012 110.774 73.4344C111.609 73.8573 112.811 74.435 114.229 74.5897C115.648 74.7341 116.932 74.2803 117.669 73.7284C118.417 73.1714 118.66 72.6041 118.706 72.635Z"
        fill="#FAFAFA" />
    <path
        d="M121.032 69.4684C121.047 69.5406 120.454 69.7263 119.707 69.8862C118.959 70.046 118.34 70.1131 118.324 70.0409C118.309 69.9687 118.902 69.783 119.65 69.6231C120.398 69.4632 121.017 69.3962 121.032 69.4684Z"
        fill="#FAFAFA" />
    <path
        d="M126.019 69.6335C126.05 69.6954 125.013 70.3091 123.621 70.8197C122.228 71.3303 121.037 71.5263 121.022 71.4541C121.001 71.3768 122.156 71.0673 123.528 70.567C124.9 70.0667 125.983 69.5665 126.019 69.6335Z"
        fill="#FAFAFA" />
    <path
        d="M124.369 64.6934C124.379 64.7708 123.652 64.9152 122.785 65.1576C121.919 65.4052 121.222 65.6579 121.192 65.5857C121.166 65.5238 121.821 65.1524 122.713 64.8997C123.605 64.647 124.358 64.6264 124.369 64.6934Z"
        fill="#FAFAFA" />
    <path
        d="M121.563 62.8052C121.573 62.8052 121.568 62.9135 121.553 63.1095C121.532 63.3364 121.506 63.6252 121.481 63.9759C121.439 64.3524 121.403 64.8115 121.367 65.3478C121.326 65.8842 121.274 66.4928 121.243 67.1633C121.156 68.5094 121.12 70.1186 121.104 71.9031C121.109 73.6876 121.161 75.6475 121.29 77.7053C121.429 79.7632 121.63 81.7127 121.852 83.4818C122.094 85.2508 122.337 86.8393 122.6 88.1648C122.718 88.8301 122.847 89.4284 122.956 89.9545C123.059 90.4805 123.157 90.9344 123.244 91.3006C123.322 91.6461 123.379 91.9298 123.43 92.1516C123.471 92.3476 123.487 92.4507 123.477 92.4507C123.466 92.4507 123.435 92.3527 123.379 92.1619C123.317 91.9401 123.239 91.6616 123.147 91.3212C123.043 90.955 122.93 90.5063 122.811 89.9854C122.687 89.4645 122.548 88.8662 122.419 88.2009C122.136 86.8754 121.873 85.2869 121.615 83.5127C121.377 81.7385 121.166 79.7786 121.032 77.7208C120.903 75.6578 120.862 73.6927 120.867 71.9031C120.893 70.1134 120.949 68.5043 121.063 67.153C121.104 66.4773 121.171 65.8688 121.223 65.3324C121.274 64.796 121.326 64.337 121.383 63.9605C121.434 63.6098 121.475 63.3261 121.506 63.0992C121.532 62.9032 121.553 62.8052 121.563 62.8052Z"
        fill="#263238" />
    <g opacity="0.2">
        <g opacity="0.2">
            <path opacity="0.2"
                d="M110.309 68.8604C111.851 69.8609 113.909 70.0156 115.58 69.2472C115.781 69.1543 115.977 69.0512 116.199 69.0202C116.416 68.9893 116.663 69.0563 116.782 69.242C116.947 69.4947 116.803 69.8351 116.617 70.0724C115.859 71.0523 114.461 71.3979 113.259 71.0884C112.063 70.779 111.067 69.9022 110.397 68.8604"
                fill="black" />
        </g>
    </g>
    <path
        d="M100.624 24.804C100.35 23.6229 100.072 22.4315 100.036 21.2195C99.9994 20.0075 100.216 18.7542 100.861 17.7278C101.505 16.7015 102.63 15.933 103.842 15.9072C104.59 15.8917 105.343 16.1496 106.08 16.0155C106.931 15.8608 107.597 15.2161 108.324 14.7468C109.458 14.0041 110.835 13.6482 112.187 13.741C112.893 13.7926 113.615 13.9731 114.188 14.396C114.755 14.819 115.152 15.5204 115.08 16.227C115.947 16.098 116.823 15.9639 117.69 16.0619C118.561 16.1599 119.433 16.5158 119.98 17.2017C120.526 17.8877 120.65 18.9347 120.129 19.6361C120.903 19.3524 121.836 19.8424 122.146 20.6057C122.455 21.369 122.192 22.2974 121.61 22.8802C121.027 23.463 119.825 23.8601 119 23.8292C118.175 23.7982 117.226 23.7106 116.498 23.3186"
        fill="#263238" />
    <path
        d="M103.512 52.1333C107.096 52.9586 110.588 50.4468 110.949 46.7901C111.145 44.8303 111.315 43.1541 111.351 42.9168C111.351 42.9168 116.287 43.0097 117.185 38.2183C118.087 33.4269 119.186 22.2506 119.186 22.2506C114.044 18.8878 107.483 18.5681 102.042 21.4202L101.232 21.8431L98.8031 45.5678C98.4937 48.6262 100.51 51.4422 103.512 52.1333Z"
        fill="#B78876" />
    <path
        d="M111.372 42.8486C111.372 42.8486 108.293 42.5649 105.42 39.9707C105.42 39.9707 106.297 43.6893 111.166 44.0916L111.372 42.8486Z"
        fill="#AA6550" />
    <path
        d="M100.959 26.9228C100.881 26.8712 97.8281 25.3704 97.3588 28.6712C96.8895 31.972 100.299 31.7657 100.319 31.6729C100.34 31.5749 100.959 26.9228 100.959 26.9228Z"
        fill="#B78876" />
    <path
        d="M99.4885 30.2751C99.473 30.2648 99.4266 30.306 99.3234 30.337C99.2203 30.3679 99.0552 30.3731 98.8902 30.2854C98.5601 30.11 98.3435 29.5118 98.4157 28.9135C98.4518 28.6144 98.5549 28.3359 98.6942 28.1141C98.8283 27.8871 99.0088 27.7427 99.1893 27.7324C99.3698 27.7169 99.4781 27.8407 99.5039 27.9387C99.5349 28.0367 99.5039 28.0986 99.5194 28.1089C99.5297 28.1192 99.5968 28.0625 99.5916 27.9232C99.5864 27.8562 99.5607 27.7737 99.4936 27.6963C99.4214 27.619 99.3131 27.5725 99.1893 27.5674C98.9314 27.5467 98.6684 27.7479 98.5137 27.9955C98.3435 28.2379 98.2197 28.5473 98.1836 28.8877C98.1114 29.5582 98.3641 30.2287 98.818 30.435C99.0397 30.5278 99.2461 30.4865 99.3544 30.4247C99.473 30.3524 99.4988 30.2802 99.4885 30.2751Z"
        fill="#AA6550" />
    <path
        d="M116.777 29.6094C116.726 29.9756 116.375 30.2335 115.993 30.1871C115.612 30.1406 115.343 29.8106 115.395 29.4444C115.447 29.0782 115.797 28.8203 116.179 28.8667C116.555 28.9131 116.829 29.2432 116.777 29.6094Z"
        fill="#263238" />
    <path
        d="M117.097 28.8468C116.994 28.919 116.546 28.4446 115.808 28.3208C115.07 28.1815 114.462 28.4703 114.4 28.362C114.369 28.3156 114.482 28.1712 114.751 28.0371C115.014 27.9082 115.437 27.8102 115.896 27.8927C116.355 27.9752 116.711 28.2125 116.907 28.4239C117.097 28.6405 117.144 28.8159 117.097 28.8468Z"
        fill="#263238" />
    <path
        d="M109.618 28.3355C109.567 28.7017 109.216 28.9596 108.834 28.9131C108.453 28.8667 108.184 28.5366 108.236 28.1704C108.288 27.8043 108.638 27.5464 109.02 27.5928C109.396 27.6392 109.665 27.9693 109.618 28.3355Z"
        fill="#263238" />
    <path
        d="M109.814 27.7126C109.711 27.7848 109.263 27.3103 108.525 27.1865C107.787 27.0472 107.179 27.3361 107.117 27.2278C107.086 27.1813 107.2 27.0369 107.468 26.9028C107.731 26.7739 108.154 26.6759 108.613 26.7584C109.072 26.8409 109.428 27.0782 109.624 27.2896C109.814 27.5063 109.866 27.6816 109.814 27.7126Z"
        fill="#263238" />
    <path
        d="M111.537 33.6582C111.542 33.617 112.012 33.617 112.775 33.6531C112.966 33.6686 113.151 33.6582 113.208 33.5396C113.275 33.4107 113.234 33.1941 113.182 32.9568C113.084 32.472 112.981 31.9614 112.878 31.425C112.46 29.2485 112.197 27.4692 112.285 27.4537C112.373 27.4382 112.78 29.1918 113.198 31.3683C113.296 31.9047 113.389 32.4153 113.481 32.9052C113.518 33.1322 113.595 33.3952 113.45 33.6634C113.373 33.7975 113.218 33.8749 113.095 33.8852C112.966 33.9006 112.863 33.8852 112.765 33.8749C111.996 33.7769 111.532 33.6995 111.537 33.6582Z"
        fill="#263238" />
    <path
        d="M109.273 33.787C109.397 33.8025 109.257 34.6019 109.84 35.293C110.423 35.9841 111.295 36.0409 111.279 36.1543C111.279 36.2059 111.063 36.2781 110.702 36.2214C110.346 36.1698 109.851 35.9687 109.49 35.5457C109.134 35.1228 109.036 34.6277 109.067 34.2925C109.098 33.9572 109.221 33.7716 109.273 33.787Z"
        fill="#263238" />
    <path
        d="M117.05 27.5006C116.89 27.645 116.411 27.382 115.802 27.2685C115.199 27.1344 114.652 27.1808 114.564 26.9848C114.528 26.892 114.637 26.7373 114.894 26.6186C115.147 26.5 115.539 26.4381 115.957 26.5206C116.375 26.6083 116.71 26.8249 116.896 27.0312C117.081 27.2427 117.123 27.4284 117.05 27.5006Z"
        fill="#263238" />
    <path
        d="M109.325 24.8764C109.227 24.9538 109.041 24.8816 108.804 24.7888C108.566 24.6959 108.262 24.5825 107.911 24.5051C107.561 24.4329 107.241 24.4174 106.983 24.4071C106.73 24.3968 106.534 24.3865 106.472 24.2782C106.416 24.1802 106.524 23.979 106.818 23.814C107.107 23.6489 107.586 23.551 108.087 23.6541C108.592 23.7573 108.989 24.0409 109.185 24.3091C109.397 24.5825 109.417 24.8094 109.325 24.8764Z"
        fill="#263238" />
    <path
        d="M119.17 23.7671C119.17 23.7671 115.766 24.2828 112.228 22.1837C109.907 20.8066 107.138 20.0124 106.483 20.4508C105.828 20.8892 105.518 23.3648 103.074 23.9166C103.074 23.9166 102.893 28.6667 101.016 28.3624C99.1384 28.0581 100.856 20.8015 100.856 20.8015L105.642 18.8829L110.758 18.2949L115.483 18.6405L119.779 20.3115L119.17 23.7671Z"
        fill="#263238" />
    <path
        d="M42.8692 81.4693L43.875 82.7484C43.875 82.7484 48.8211 74.8213 54.5717 74.0012C54.9069 74.1663 55.3041 74.1559 55.6238 73.9651L57.4806 72.8872C57.8777 72.6448 58.084 72.1858 57.9963 71.7267C57.9963 71.7267 60.7659 66.8116 66.6765 66.0431L68.8323 65.6305L54.0044 52.061L30.9347 61.4426L42.8692 81.4693Z"
        fill="#7B20F9" />
    <path
        d="M40.4243 80.4067L42.1727 82.7482C42.1727 82.7482 46.2007 73.6606 56.2218 73.0263L46.3606 62.835C46.3606 62.8298 39.2432 77.6062 40.4243 80.4067Z"
        fill="#EBEBEB" />
    <path
        d="M26.9219 64.088C26.9219 64.088 30.7436 51.7563 43.4054 56.264L56.2219 73.0208C56.2219 73.0208 43.0959 70.6587 40.0066 81.4689L26.9219 64.088Z"
        fill="#F5F5F5" />
    <path
        d="M56.2218 73.0211C56.2218 73.0211 60.1828 63.3353 68.832 64.5267L56.2218 49.8638L43.8489 56.8419L56.2218 73.0211Z"
        fill="#EBEBEB" />
    <path
        d="M43.4056 56.285C43.4056 56.285 41.9667 48.9613 47.6245 45.7688L51.3276 43.8398L64.2988 58.3635C64.2988 58.3635 55.3454 63.2632 56.217 73.0418L43.4056 56.285Z"
        fill="#F5F5F5" />
    <path
        d="M56.2218 73.0217C56.2063 73.032 56.0155 72.8102 55.6854 72.3925C55.3295 71.9386 54.8602 71.3404 54.298 70.6183C53.1066 69.0762 51.5181 67.0132 49.7594 64.7335C47.9955 62.4591 46.3967 60.4012 45.2053 58.8591C44.6431 58.137 44.1738 57.5439 43.8179 57.0849C43.493 56.6671 43.3176 56.4247 43.3331 56.4144C43.3486 56.4041 43.5497 56.6156 43.9004 57.0179C44.2563 57.415 44.7463 58.0081 45.3549 58.7405C46.5669 60.2104 48.2018 62.2682 49.976 64.5685C51.7502 66.8688 53.3284 68.9679 54.4528 70.5048C54.9891 71.2475 55.4327 71.8613 55.7731 72.3306C56.0722 72.7638 56.2373 73.0114 56.2218 73.0217Z"
        fill="#263238" />
    <path
        d="M51.6109 48.1103C51.6212 48.1619 50.992 48.2805 50.1255 48.8015C49.259 49.3121 48.1708 50.2301 47.2631 51.4782C46.3296 52.7109 45.8086 54.0364 45.5765 55.0163C45.3496 56.0014 45.3857 56.6409 45.329 56.6409C45.3084 56.6409 45.298 56.4862 45.2877 56.1974C45.2671 55.9085 45.3084 55.4908 45.3909 54.9802C45.5817 53.9693 46.0871 52.5871 47.0465 51.3235C47.98 50.0444 49.1198 49.1264 50.0327 48.6416C50.4917 48.3992 50.8888 48.2548 51.1673 48.1826C51.451 48.1155 51.6057 48.0949 51.6109 48.1103Z"
        fill="#263238" />
    <path
        d="M58.0012 54.2379C58.0218 54.2843 57.4184 54.5525 56.5674 55.1662C56.1393 55.4705 55.6648 55.8831 55.18 56.3731C54.7055 56.8785 54.2259 57.4717 53.7978 58.1473C53.38 58.8281 53.0603 59.5244 52.8178 60.1742C52.5909 60.8292 52.431 61.4378 52.3485 61.9536C52.1732 62.9902 52.2041 63.6504 52.1525 63.6504C52.1319 63.6504 52.1164 63.4854 52.101 63.1862C52.0906 63.0366 52.0855 62.851 52.101 62.6395C52.1164 62.4281 52.1164 62.1856 52.1628 61.9175C52.2247 61.3862 52.364 60.757 52.5858 60.0814C52.8179 59.4109 53.1428 58.694 53.5709 57.9926C54.0092 57.2963 54.5095 56.6929 55.0046 56.1823C55.5101 55.6871 56.0104 55.2797 56.4642 54.9909C56.6809 54.831 56.8975 54.7227 57.0831 54.6195C57.2688 54.5112 57.4338 54.4339 57.5731 54.3771C57.8361 54.2791 57.9909 54.2224 58.0012 54.2379Z"
        fill="#263238" />
    <path
        d="M60.0695 55.9861C60.0901 56.0325 59.4351 56.3213 58.517 57.0124C58.0529 57.3425 57.5474 57.8119 57.0162 58.3431C56.5004 58.8949 55.9641 59.5345 55.4793 60.2565C54.9996 60.9837 54.6076 61.7213 54.3033 62.4124C54.0248 63.1138 53.7979 63.7585 53.6844 64.3207C53.4369 65.4399 53.473 66.1568 53.4214 66.1568C53.4008 66.1568 53.3904 65.9814 53.375 65.6513C53.3647 65.4863 53.3698 65.2903 53.3956 65.0582C53.4111 64.8261 53.4369 64.5631 53.4988 64.2794C53.5864 63.7018 53.7979 63.0364 54.0712 62.3144C54.3704 61.6026 54.7624 60.8496 55.2523 60.107C55.7526 59.3694 56.2993 58.7196 56.8357 58.1677C57.3927 57.6365 57.9136 57.1775 58.4036 56.8577C58.6408 56.6875 58.8678 56.5534 59.0689 56.4399C59.27 56.3213 59.4454 56.2285 59.595 56.1666C59.8941 56.0377 60.0592 55.9706 60.0695 55.9861Z"
        fill="#263238" />
    <path
        d="M61.364 57.6462C61.3898 57.6927 60.7244 57.9815 59.8167 58.6881C59.3525 59.0285 58.8626 59.5081 58.3417 60.06C57.8414 60.6273 57.3308 61.2926 56.8614 62.0302C56.4024 62.778 56.0362 63.531 55.7474 64.2324C55.4844 64.9442 55.2729 65.5992 55.1698 66.1614C54.9377 67.2857 54.9738 68.0077 54.9171 68.0129C54.8964 68.0129 54.881 67.8324 54.8706 67.5075C54.8603 67.3424 54.8655 67.1464 54.8861 66.9143C54.9016 66.6823 54.9222 66.4192 54.9789 66.1304C55.0563 65.5476 55.2574 64.8771 55.5102 64.1448C55.7938 63.4227 56.16 62.6542 56.6242 61.8909C57.1038 61.1327 57.6299 60.4623 58.1508 59.8949C58.6924 59.3431 59.2081 58.8686 59.6929 58.5385C59.925 58.358 60.152 58.2239 60.3531 58.1104C60.5491 57.9866 60.7244 57.8938 60.8792 57.8319C61.1886 57.6927 61.3537 57.6256 61.364 57.6462Z"
        fill="#263238" />
    <path
        d="M50.662 70.313C50.6465 70.3594 49.9451 70.117 48.764 70.0139C47.5932 69.9056 45.9222 70.0036 44.2511 70.6895C42.5801 71.3755 41.3217 72.4792 40.5635 73.3766C39.795 74.2792 39.4649 74.9497 39.4237 74.9239C39.4082 74.9187 39.4753 74.7434 39.6351 74.4442C39.7899 74.1451 40.0477 73.7325 40.4191 73.258C41.1566 72.309 42.4305 71.1486 44.1531 70.442C45.8758 69.7354 47.5984 69.6683 48.7898 69.8282C49.388 69.9056 49.8625 70.0191 50.1823 70.1222C50.4969 70.2202 50.6671 70.2976 50.662 70.313Z"
        fill="#263238" />
    <path
        d="M48.9652 68.1997C48.9497 68.2462 48.2483 68.0038 47.0672 67.9006C45.8965 67.7923 44.2254 67.8903 42.5544 68.5762C40.8833 69.2622 39.6249 70.3659 38.8668 71.2633C38.0983 72.1659 37.7682 72.8364 37.7218 72.8106C37.7063 72.8054 37.7733 72.6301 37.9332 72.3309C38.088 72.0318 38.3458 71.6192 38.7172 71.1447C39.4547 70.1957 40.7286 69.0353 42.4512 68.3287C44.1739 67.6221 45.8965 67.5551 47.0879 67.7149C47.6861 67.7923 48.1606 67.9058 48.4804 68.0089C48.8002 68.1069 48.9704 68.1843 48.9652 68.1997Z"
        fill="#263238" />
    <path
        d="M47.2683 66.0791C47.2528 66.1256 46.5514 65.8832 45.3703 65.78C44.1996 65.6717 42.5285 65.7697 40.8575 66.4556C39.1865 67.1416 37.928 68.2453 37.1698 69.1427C36.4014 70.0453 36.0713 70.7158 36.0249 70.69C36.0094 70.6848 36.0764 70.5095 36.2363 70.2103C36.3911 69.9112 36.6489 69.4986 37.0203 69.0241C37.7578 68.0751 39.0317 66.9147 40.7543 66.2081C42.477 65.5015 44.1996 65.4344 45.391 65.5943C45.9892 65.6717 46.4637 65.7852 46.7835 65.8883C47.1033 65.9915 47.2735 66.0637 47.2683 66.0791Z"
        fill="#263238" />
    <path
        d="M45.5714 63.9644C45.5559 64.0108 44.8545 63.7684 43.6734 63.6653C42.5027 63.5569 40.8316 63.6549 39.1606 64.3409C37.4895 65.0268 36.2311 66.1306 35.4729 67.028C34.7045 67.9305 34.3744 68.601 34.328 68.5752C34.3125 68.5701 34.3795 68.3947 34.5394 68.0956C34.6942 67.7965 34.952 67.3838 35.3234 66.9094C36.0609 65.9604 37.3348 64.7999 39.0574 64.0933C40.7801 63.3868 42.5027 63.3197 43.6941 63.4796C44.2923 63.5569 44.7668 63.6704 45.0866 63.7736C45.4064 63.8767 45.5766 63.9489 45.5714 63.9644Z"
        fill="#263238" />
    <path
        d="M43.8698 61.8496C43.8543 61.8961 43.1529 61.6537 41.9718 61.5505C40.801 61.4422 39.13 61.5402 37.4589 62.2261C35.7879 62.9121 34.5294 64.0158 33.7713 64.9132C33.0028 65.8158 32.6727 66.4863 32.6263 66.4605C32.6108 66.4553 32.6779 66.28 32.8378 65.9808C32.9925 65.6817 33.2504 65.2691 33.6217 64.7946C34.3592 63.8456 35.6332 62.6852 37.3558 61.9786C39.0784 61.272 40.801 61.205 41.9924 61.3648C42.5907 61.4422 43.0652 61.5557 43.3849 61.6588C43.7099 61.7568 43.8749 61.8342 43.8698 61.8496Z"
        fill="#263238" />
    <path
        d="M42.1729 59.7359C42.1574 59.7823 41.456 59.5399 40.2749 59.4367C39.1041 59.3284 37.4331 59.4264 35.762 60.1124C34.091 60.7983 32.8325 61.902 32.0744 62.7995C31.3059 63.702 30.9758 64.3725 30.9294 64.3467C30.9139 64.3416 30.981 64.1662 31.1409 63.8671C31.2956 63.5679 31.5535 63.1553 31.9248 62.6808C32.6623 61.7319 33.9363 60.5714 35.6589 59.8648C37.3815 59.1582 39.1041 59.0912 40.2955 59.2511C40.8938 59.3284 41.3683 59.4419 41.688 59.5451C42.0078 59.643 42.178 59.7204 42.1729 59.7359Z"
        fill="#263238" />
    <path
        d="M46.8868 57.1413L50.4301 61.0713C50.4301 61.0713 51.5338 55.6353 56.3458 53.5722L52.6066 49.5854C52.6014 49.5854 47.6966 51.2462 46.8868 57.1413Z"
        fill="#EBEBEB" />
    <path
        d="M59.5949 17.3914L59.0688 18.5467C59.0688 18.5467 66.3358 19.1399 68.961 22.8275C68.9662 23.1215 69.1157 23.3897 69.3633 23.5444L70.7765 24.447C71.0859 24.6326 71.4779 24.612 71.7667 24.3902C71.7667 24.3902 76.1661 24.5501 78.8119 28.3719L79.8692 29.718L84.5574 14.07L69.2034 1.93945L59.5949 17.3914Z"
        fill="#7B20F9" />
    <path
        d="M59.4557 15.3132L58.4603 17.3659C58.4603 17.3659 66.2018 16.9069 70.2298 23.622L73.7628 13.1367C73.7679 13.1367 60.9721 13.4926 59.4557 15.3132Z"
        fill="#EBEBEB" />
    <path
        d="M65.9339 0.114113C65.9339 0.114113 75.8519 -1.65492 77.2599 8.73752L70.2302 23.6222C70.2302 23.6222 67.1666 13.6785 58.569 15.4062L65.9339 0.114113Z"
        fill="#F5F5F5" />
    <path
        d="M70.23 23.6221C70.23 23.6221 78.3634 22.9001 80.6379 29.3212L86.2854 15.3288L77.0173 9.24805L70.23 23.6221Z"
        fill="#EBEBEB" />
    <path
        d="M77.2441 8.74788C77.2441 8.74788 81.8086 5.12729 86.0481 7.90721L88.7145 9.78455L83.2939 23.9781C83.2939 23.9781 76.6923 19.522 70.2247 23.6325L77.2441 8.74788Z"
        fill="#F5F5F5" />
    <path
        d="M70.2299 23.6216C70.2144 23.6113 70.2969 23.3998 70.462 23.0181C70.6579 22.5901 70.8952 22.0537 71.184 21.4141C71.8339 20.0165 72.6849 18.1855 73.6287 16.1586C74.5725 14.1317 75.4235 12.3008 76.0785 10.9031C76.3725 10.2687 76.6201 9.73747 76.8212 9.3094C76.9966 8.9329 77.1049 8.73176 77.1203 8.73691C77.1358 8.74207 77.0636 8.96384 76.914 9.35066C76.7696 9.73747 76.5375 10.2945 76.2487 10.9804C75.6711 12.3472 74.8304 14.2194 73.8711 16.2721C72.9118 18.3248 72.0144 20.1712 71.3542 21.4967C71.0241 22.162 70.7508 22.6932 70.5548 23.0646C70.364 23.4307 70.2505 23.6319 70.2299 23.6216Z"
        fill="#263238" />
    <path
        d="M86.0378 11.2027C86.0069 11.2388 85.5994 10.9242 84.867 10.5581C84.1398 10.1919 83.0567 9.81536 81.8138 9.71737C80.5708 9.61938 79.4413 9.82052 78.6625 10.0681C77.8786 10.3156 77.4299 10.5632 77.4092 10.522C77.3989 10.5065 77.5072 10.4343 77.7084 10.3105C77.9044 10.1867 78.2138 10.0371 78.6058 9.88757C79.3897 9.58843 80.5502 9.35119 81.8396 9.44918C83.1238 9.55233 84.2378 9.97009 84.965 10.393C85.3312 10.5993 85.6097 10.7953 85.7851 10.95C85.9553 11.0996 86.0481 11.1873 86.0378 11.2027Z"
        fill="#263238" />
    <path
        d="M85.6252 12.9151C85.5943 12.9513 85.1868 12.6366 84.4545 12.2705C83.7272 11.9043 82.6442 11.5278 81.4012 11.4298C80.1582 11.3318 79.0287 11.5329 78.2499 11.7805C77.4711 12.028 77.0173 12.2756 76.9966 12.2344C76.9863 12.2189 77.0946 12.1467 77.2958 12.0229C77.4918 11.8991 77.8012 11.7495 78.1932 11.6C78.9771 11.3008 80.1376 11.0636 81.427 11.1616C82.7112 11.2647 83.8252 11.6825 84.5524 12.1054C84.9186 12.3117 85.1971 12.5077 85.3725 12.6624C85.5427 12.812 85.6355 12.8997 85.6252 12.9151Z"
        fill="#263238" />
    <path
        d="M84.8515 14.6173C84.8206 14.6534 84.4131 14.3388 83.6808 13.9726C82.9536 13.6064 81.8705 13.2299 80.6275 13.1319C79.3845 13.0339 78.255 13.2351 77.4763 13.4826C76.6923 13.7302 76.2436 13.9778 76.223 13.9365C76.2126 13.921 76.321 13.8488 76.5221 13.725C76.7181 13.6013 77.0275 13.4517 77.4195 13.3021C78.2035 13.003 79.3639 12.7657 80.6533 12.8637C81.9375 12.9669 83.0515 13.3846 83.7788 13.8076C84.1449 14.0139 84.4235 14.2098 84.5988 14.3646C84.7742 14.5141 84.867 14.6018 84.8515 14.6173Z"
        fill="#263238" />
    <path
        d="M84.3715 16.319C84.3406 16.3551 83.9332 16.0404 83.2008 15.6743C82.4736 15.3081 81.3905 14.9316 80.1475 14.8336C78.9046 14.7356 77.7751 14.9367 76.9963 15.1843C76.2175 15.4319 75.7636 15.6794 75.743 15.6382C75.7327 15.6227 75.841 15.5505 76.0421 15.4267C76.2381 15.3029 76.5476 15.1534 76.9395 15.0038C77.7235 14.7046 78.8839 14.4674 80.1733 14.5654C81.4575 14.6685 82.5716 15.0863 83.2988 15.5092C83.665 15.7155 83.9435 15.9115 84.1188 16.0662C84.289 16.2158 84.3819 16.3035 84.3715 16.319Z"
        fill="#263238" />
    <path
        d="M83.8871 18.1295C83.8561 18.1656 83.4487 17.851 82.7163 17.4848C81.9891 17.1186 80.906 16.7421 79.663 16.6441C78.4201 16.5461 77.2906 16.7473 76.5118 16.9948C75.733 17.2424 75.2791 17.49 75.2585 17.4487C75.2482 17.4332 75.3565 17.361 75.5576 17.2372C75.7536 17.1135 76.0631 16.9639 76.455 16.8143C77.239 16.5152 78.3994 16.2779 79.6888 16.3759C80.973 16.4791 82.0871 16.8969 82.8143 17.3198C83.1805 17.5261 83.459 17.7221 83.6343 17.8768C83.8097 18.0264 83.9025 18.114 83.8871 18.1295Z"
        fill="#263238" />
    <path
        d="M83.418 20.1874C83.387 20.2287 82.9486 19.878 82.1441 19.4963C81.7469 19.2952 81.2467 19.1147 80.6845 18.9393C80.1172 18.7794 79.4828 18.6402 78.8123 18.5628C78.1367 18.4906 77.4868 18.4803 76.904 18.5164C76.3212 18.5731 75.7951 18.6402 75.3671 18.764C74.5058 18.9857 74.0158 19.2642 73.99 19.2178C73.9797 19.2024 74.0983 19.125 74.3201 18.9961C74.4284 18.929 74.5676 18.862 74.7378 18.7949C74.9029 18.7227 75.0937 18.6453 75.3155 18.5835C75.7487 18.4339 76.2851 18.341 76.8885 18.274C77.492 18.2224 78.1573 18.2276 78.8484 18.2998C79.5395 18.3823 80.1894 18.5319 80.767 18.7072C81.3395 18.9032 81.8449 19.1044 82.2369 19.3313C82.4381 19.4344 82.6134 19.5479 82.763 19.6459C82.9177 19.7439 83.0415 19.8316 83.1395 19.9193C83.3303 20.0791 83.4283 20.1771 83.418 20.1874Z"
        fill="#263238" />
    <path
        d="M82.7316 21.678C82.7006 21.7192 82.2623 21.3685 81.4474 20.9972C81.0451 20.8012 80.5345 20.6362 79.9723 20.4763C79.3998 20.3319 78.7603 20.2184 78.0795 20.1565C77.3987 20.1101 76.7488 20.1204 76.1609 20.172C75.5781 20.2442 75.0468 20.3267 74.6188 20.4556C73.7575 20.6929 73.2623 20.9662 73.2417 20.925C73.2314 20.9095 73.35 20.8321 73.5718 20.7032C73.6801 20.6362 73.8194 20.5691 73.9896 20.4969C74.1546 20.4195 74.3454 20.3422 74.5672 20.2751C75.0004 20.1204 75.5368 20.0121 76.1351 19.9244C76.7385 19.8574 77.4038 19.8367 78.1053 19.8883C78.8015 19.9502 79.4565 20.074 80.0445 20.2339C80.6222 20.4144 81.1379 20.6052 81.5402 20.827C81.7465 20.925 81.9219 21.0333 82.0766 21.1364C82.2313 21.2344 82.3602 21.3221 82.4582 21.4046C82.6439 21.5697 82.7471 21.6677 82.7316 21.678Z"
        fill="#263238" />
    <path
        d="M70.1216 18.8001C70.0751 18.8104 69.9875 18.2328 69.6316 17.3818C69.2809 16.5359 68.6156 15.4168 67.5479 14.509C66.4803 13.6013 65.2683 13.1216 64.3812 12.9102C63.4838 12.6936 62.901 12.6987 62.9062 12.6523C62.9062 12.6368 63.0506 12.6162 63.3136 12.6162C63.5766 12.6162 63.9583 12.642 64.4225 12.7245C65.3457 12.8896 66.6144 13.3589 67.7233 14.3027C68.8322 15.2466 69.4975 16.4276 69.8069 17.3096C69.9668 17.7531 70.0545 18.1245 70.0958 18.3875C70.1319 18.6505 70.137 18.7949 70.1216 18.8001Z"
        fill="#263238" />
    <path
        d="M70.9776 16.8665C70.9312 16.8768 70.8435 16.2992 70.4877 15.4482C70.137 14.6023 69.4716 13.4832 68.404 12.5754C67.3364 11.6677 66.1244 11.1881 65.2373 10.9766C64.3399 10.76 63.7571 10.7651 63.7622 10.7187C63.7622 10.7032 63.9067 10.6826 64.1697 10.6826C64.4327 10.6826 64.8144 10.7084 65.2786 10.7909C66.2018 10.956 67.4705 11.4253 68.5794 12.3691C69.6883 13.313 70.3536 14.494 70.663 15.376C70.8229 15.8195 70.9106 16.1909 70.9519 16.4539C70.9931 16.7169 70.9931 16.8614 70.9776 16.8665Z"
        fill="#263238" />
    <path
        d="M71.8391 14.9319C71.7927 14.9423 71.705 14.3646 71.3491 13.5136C70.9984 12.6678 70.3331 11.5486 69.2655 10.6409C68.1979 9.73314 66.9858 9.25349 66.0987 9.04203C65.2013 8.82541 64.6185 8.83057 64.6237 8.78415C64.6237 8.76868 64.7681 8.74805 65.0311 8.74805C65.2942 8.74805 65.6758 8.77383 66.14 8.85635C67.0632 9.0214 68.332 9.49073 69.4408 10.4346C70.5497 11.3784 71.215 12.5595 71.5245 13.4414C71.6844 13.885 71.772 14.2563 71.8133 14.5193C71.8494 14.7824 71.8546 14.9268 71.8391 14.9319Z"
        fill="#263238" />
    <path
        d="M72.6952 12.9979C72.6488 13.0082 72.5611 12.4305 72.2052 11.5795C71.8545 10.7337 71.1892 9.61451 70.1216 8.70678C69.0539 7.79905 67.8419 7.3194 66.9548 7.10794C66.0574 6.89133 65.4746 6.89649 65.4798 6.85007C65.4798 6.83459 65.6242 6.81396 65.8872 6.81396C66.1503 6.81396 66.5319 6.83975 66.9961 6.92227C67.9193 7.08731 69.188 7.55665 70.2969 8.50048C71.4058 9.44431 72.0711 10.6254 72.3806 11.5073C72.5404 11.9509 72.6281 12.3222 72.6642 12.5853C72.7106 12.8483 72.7106 12.9927 72.6952 12.9979Z"
        fill="#263238" />
    <path
        d="M73.5564 11.0638C73.51 11.0741 73.4223 10.4964 73.0664 9.64545C72.7157 8.79961 72.0504 7.68043 70.9828 6.7727C69.9152 5.86497 68.7031 5.38532 67.816 5.17386C66.9186 4.95725 66.3358 4.9624 66.341 4.91599C66.341 4.90051 66.4854 4.87988 66.7484 4.87988C67.0115 4.87988 67.3931 4.90567 67.8573 4.98819C68.7805 5.15323 70.0493 5.62257 71.1581 6.5664C72.267 7.51023 72.9323 8.69131 73.2418 9.57325C73.4017 10.0168 73.4893 10.3881 73.5306 10.6512C73.5667 10.9142 73.5719 11.0586 73.5564 11.0638Z"
        fill="#263238" />
    <path
        d="M74.4125 9.12481C74.366 9.13513 74.2784 8.55748 73.9225 7.70649C73.5718 6.86065 72.9065 5.74146 71.8388 4.83374C70.7712 3.92601 69.5592 3.44636 68.6721 3.2349C67.7747 3.01828 67.1919 3.02344 67.1971 2.97702C67.1971 2.96155 67.3415 2.94092 67.6045 2.94092C67.8675 2.94092 68.2492 2.96671 68.7134 3.04923C69.6366 3.21427 70.9053 3.6836 72.0142 4.62743C73.1231 5.57126 73.7884 6.75234 74.0978 7.63428C74.2577 8.07783 74.3454 8.44917 74.3815 8.71221C74.4228 8.9804 74.4279 9.12481 74.4125 9.12481Z"
        fill="#263238" />
    <path
        d="M154.958 66.3575L154.087 67.7294C154.087 67.7294 163.21 69.7563 165.897 74.9036C165.851 75.2749 165.995 75.6462 166.284 75.8887L167.919 77.2812C168.28 77.5752 168.781 77.6164 169.183 77.3843C169.183 77.3843 174.737 78.3591 177.43 83.6765L178.533 85.5694L187.229 66.5277L169.858 48.4351L154.958 66.3575Z"
        fill="#7B20F9" />
    <path
        d="M155.149 63.7013L153.524 66.1305C153.524 66.1305 163.432 66.9041 167.372 76.1361L173.701 63.4434C173.696 63.4434 157.393 61.6537 155.149 63.7013Z"
        fill="#EBEBEB" />
    <path
        d="M166.037 45.5367C166.037 45.5367 178.941 45.0312 178.9 58.4718L167.368 76.1363C167.368 76.1363 165.222 62.9743 154.004 63.6603L166.037 45.5367Z"
        fill="#F5F5F5" />
    <path
        d="M167.372 76.1361C167.372 76.1361 177.827 76.6467 179.58 85.1979L189.204 68.4255L178.502 59.0801L167.372 76.1361Z"
        fill="#EBEBEB" />
    <path
        d="M178.884 58.4822C178.884 58.4822 185.311 54.6862 190.205 58.9618L193.258 61.814L183.887 78.8803C183.887 78.8803 176.285 72.0671 167.352 76.1519L178.884 58.4822Z"
        fill="#F5F5F5" />
    <path
        d="M167.373 76.136C167.357 76.1257 167.507 75.873 167.785 75.4191C168.095 74.9291 168.502 74.2896 168.992 73.516C170.05 71.881 171.463 69.6942 173.031 67.2753C174.588 64.8513 175.996 62.6645 177.054 61.0244C177.543 60.2508 177.951 59.6112 178.266 59.1264C178.554 58.6777 178.719 58.4353 178.735 58.4456C178.75 58.4559 178.616 58.7138 178.353 59.1832C178.095 59.6473 177.703 60.3127 177.213 61.1275C176.233 62.7573 174.836 64.9854 173.258 67.4249C171.679 69.8644 170.225 72.0512 169.152 73.6243C168.631 74.3773 168.203 75.0013 167.873 75.481C167.564 75.9142 167.388 76.1463 167.373 76.136Z"
        fill="#263238" />
    <path
        d="M189.617 63.1388C189.581 63.1749 189.127 62.6953 188.261 62.097C187.833 61.7927 187.286 61.4833 186.657 61.1893C186.022 60.9108 185.3 60.6529 184.521 60.4775C183.738 60.3125 182.974 60.2403 182.283 60.23C181.592 60.2351 180.963 60.2867 180.447 60.3796C179.41 60.5601 178.797 60.8076 178.781 60.7612C178.776 60.7457 178.92 60.6735 179.199 60.5601C179.338 60.4982 179.508 60.4363 179.715 60.3796C179.921 60.3228 180.148 60.2403 180.416 60.1939C180.937 60.0701 181.577 59.9979 182.288 59.9824C183 59.9824 183.784 60.0443 184.583 60.2145C185.383 60.395 186.12 60.6632 186.765 60.9675C187.405 61.2821 187.951 61.6174 188.374 61.9474C188.596 62.1022 188.771 62.2672 188.931 62.4065C189.096 62.5406 189.22 62.6747 189.323 62.7881C189.524 62.9996 189.627 63.1285 189.617 63.1388Z"
        fill="#263238" />
    <path
        d="M188.792 65.2433C188.756 65.2794 188.302 64.7998 187.436 64.2015C187.008 63.8972 186.461 63.5878 185.832 63.2938C185.197 63.0153 184.475 62.7574 183.697 62.582C182.913 62.417 182.149 62.3448 181.458 62.3345C180.767 62.3396 180.138 62.3912 179.622 62.484C178.585 62.6646 177.972 62.9121 177.956 62.8657C177.951 62.8502 178.095 62.778 178.374 62.6646C178.513 62.6027 178.683 62.5408 178.89 62.484C179.096 62.4273 179.323 62.3448 179.591 62.2984C180.112 62.1746 180.752 62.1024 181.463 62.0869C182.175 62.0869 182.959 62.1488 183.758 62.319C184.558 62.4995 185.295 62.7677 185.94 63.072C186.58 63.3866 187.126 63.7219 187.549 64.0519C187.771 64.2067 187.946 64.3717 188.106 64.511C188.271 64.6451 188.395 64.7792 188.498 64.8926C188.699 65.1041 188.802 65.2279 188.792 65.2433Z"
        fill="#263238" />
    <path
        d="M187.513 67.2707C187.477 67.3068 187.023 66.8271 186.156 66.2288C185.728 65.9246 185.182 65.6151 184.552 65.3211C183.918 65.0426 183.196 64.7847 182.417 64.6094C181.633 64.4443 180.87 64.3721 180.179 64.3618C179.488 64.367 178.858 64.4185 178.343 64.5114C177.306 64.6919 176.692 64.9395 176.677 64.893C176.672 64.8776 176.816 64.8054 177.095 64.6919C177.234 64.63 177.404 64.5681 177.61 64.5114C177.817 64.4546 178.044 64.3721 178.312 64.3257C178.833 64.2019 179.472 64.1297 180.184 64.1143C180.896 64.1143 181.68 64.1761 182.479 64.3463C183.278 64.5269 184.016 64.795 184.661 65.0993C185.3 65.414 185.847 65.7492 186.27 66.0793C186.492 66.234 186.667 66.399 186.827 66.5383C186.992 66.6724 187.116 66.8065 187.219 66.92C187.42 67.1314 187.528 67.2552 187.513 67.2707Z"
        fill="#263238" />
    <path
        d="M168.074 69.9937C168.023 69.9989 168.022 69.2511 167.723 68.1061C167.435 66.9663 166.785 65.419 165.583 64.0729C164.381 62.7268 162.922 61.9067 161.823 61.489C160.719 61.066 159.977 60.9784 159.987 60.9268C159.987 60.9113 160.178 60.9165 160.508 60.9629C160.843 61.0093 161.318 61.1125 161.89 61.3084C163.03 61.6849 164.551 62.505 165.789 63.8924C167.027 65.2797 167.667 66.8837 167.914 68.0597C168.043 68.6476 168.09 69.1376 168.1 69.4728C168.105 69.8081 168.095 69.9937 168.074 69.9937Z"
        fill="#263238" />
    <path
        d="M169.503 67.6886C169.451 67.6937 169.451 66.9459 169.152 65.8009C168.863 64.6611 168.213 63.1138 167.012 61.7677C165.81 60.4216 164.35 59.6015 163.252 59.1838C162.148 58.7609 161.405 58.6732 161.416 58.6216C161.416 58.6061 161.606 58.6113 161.937 58.6577C162.272 58.7041 162.746 58.8073 163.319 59.0033C164.459 59.3798 165.98 60.1998 167.218 61.5872C168.456 62.9746 169.095 64.5786 169.343 65.7545C169.472 66.3424 169.518 66.8324 169.528 67.1677C169.539 67.5029 169.523 67.6886 169.503 67.6886Z"
        fill="#263238" />
    <path
        d="M170.931 65.3829C170.88 65.3881 170.88 64.6402 170.581 63.4952C170.292 62.3554 169.642 60.8082 168.44 59.462C167.239 58.1159 165.779 57.2959 164.68 56.8781C163.577 56.4552 162.834 56.3675 162.844 56.3159C162.844 56.3005 163.035 56.3056 163.365 56.3521C163.701 56.3985 164.175 56.5016 164.747 56.6976C165.887 57.0741 167.409 57.8942 168.647 59.2815C169.884 60.6689 170.524 62.2729 170.771 63.4488C170.9 64.0368 170.947 64.5268 170.957 64.862C170.967 65.1972 170.952 65.3829 170.931 65.3829Z"
        fill="#263238" />
    <path
        d="M172.365 63.0777C172.314 63.0829 172.314 62.335 172.014 61.1901C171.726 60.0502 171.076 58.503 169.874 57.1569C168.672 55.8108 167.213 54.9907 166.114 54.5729C165.011 54.15 164.268 54.0623 164.278 54.0108C164.278 53.9953 164.469 54.0005 164.799 54.0469C165.129 54.0933 165.609 54.1964 166.181 54.3924C167.321 54.7689 168.843 55.589 170.08 56.9764C171.318 58.3637 171.958 59.9677 172.205 61.1436C172.334 61.7316 172.381 62.2216 172.391 62.5568C172.396 62.8921 172.381 63.0777 172.365 63.0777Z"
        fill="#263238" />
    <path
        d="M173.794 60.7721C173.742 60.7772 173.742 60.0294 173.443 58.8844C173.154 57.7446 172.504 56.1973 171.303 54.8512C170.101 53.5051 168.641 52.685 167.543 52.2673C166.439 51.8444 165.696 51.7567 165.707 51.7051C165.707 51.6896 165.898 51.6948 166.228 51.7412C166.558 51.7876 167.037 51.8908 167.61 52.0868C168.75 52.4633 170.271 53.2833 171.509 54.6707C172.747 56.0581 173.386 57.6621 173.634 58.838C173.763 59.4259 173.809 59.9159 173.82 60.2512C173.825 60.5864 173.809 60.7721 173.794 60.7721Z"
        fill="#263238" />
    <path
        d="M175.223 58.4669C175.171 58.472 175.171 57.7242 174.872 56.5792C174.583 55.4394 173.933 53.8921 172.732 52.546C171.53 51.1999 170.07 50.3799 168.972 49.9621C167.868 49.5392 167.125 49.4515 167.136 49.3999C167.136 49.3845 167.327 49.3896 167.657 49.436C167.992 49.4824 168.466 49.5856 169.039 49.7816C170.179 50.1581 171.7 50.9781 172.938 52.3655C174.176 53.7529 174.815 55.3569 175.063 56.5328C175.192 57.1208 175.238 57.6107 175.249 57.946C175.254 58.2812 175.238 58.4669 175.223 58.4669Z"
        fill="#263238" />
    <path
        d="M176.275 67.2699L172.912 72.1386C172.912 72.1386 178.054 71.5301 182.557 74.3925L185.677 69.1731C185.672 69.1782 180.906 65.4338 176.275 67.2699Z"
        fill="#EBEBEB" />
    <path
        d="M145.097 9.17612C145.252 8.41796 145.118 7.61854 144.803 6.9068C144.494 6.21053 144.004 5.58647 143.349 5.20481C142.652 4.79736 141.786 4.69937 141.012 4.9263C140.553 5.06555 140.13 5.31828 139.785 5.65352C139.692 5.2306 139.506 4.82315 139.238 4.4776C138.748 3.83806 137.985 3.41514 137.18 3.33778C136.427 3.26557 135.659 3.48735 135.004 3.86901C134.333 4.26098 133.761 4.83347 133.441 5.53489C133.039 6.41683 132.894 7.47929 133.116 8.42312C133.348 9.41852 133.941 10.3572 134.617 11.1308C135.747 12.4305 137.258 14.0861 137.258 14.0861C137.258 14.0861 139.197 13.4208 140.873 13.0288C141.869 12.7967 142.9 12.3841 143.674 11.7085C144.401 11.0741 144.906 10.1251 145.097 9.17612Z"
        fill="#FCCE5C" />
    <path
        d="M133.859 22.9106C133.74 22.5599 133.488 22.2659 133.189 22.0493C132.895 21.8378 132.539 21.6986 132.178 21.7038C131.796 21.7038 131.414 21.8739 131.151 22.1525C130.997 22.3175 130.883 22.5238 130.826 22.7456C130.687 22.596 130.512 22.4722 130.321 22.3949C129.965 22.2504 129.547 22.2608 129.202 22.4258C128.872 22.5805 128.614 22.8539 128.438 23.1685C128.258 23.4883 128.16 23.8648 128.201 24.2309C128.253 24.69 128.449 25.1593 128.769 25.4945C129.104 25.8453 129.578 26.0877 130.037 26.2424C130.816 26.5003 131.837 26.8149 131.837 26.8149C131.837 26.8149 132.472 26.0722 133.065 25.5049C133.416 25.1696 133.74 24.7467 133.895 24.2877C134.034 23.8544 134.014 23.3438 133.859 22.9106Z"
        fill="#FCCE5C" />
    <path
        d="M60.7146 99.0727C60.7971 98.7117 60.7404 98.33 60.6011 97.9896C60.4619 97.6544 60.2349 97.3501 59.9306 97.1644C59.6057 96.9633 59.1931 96.9065 58.8218 97.0045C58.6 97.0664 58.3988 97.1799 58.2286 97.3346C58.1874 97.1335 58.1049 96.9375 57.9811 96.7673C57.7542 96.4578 57.3983 96.2464 57.0166 96.2C56.6556 96.1535 56.2894 96.2515 55.9748 96.4269C55.6499 96.6074 55.3714 96.8704 55.2115 97.2005C55.0103 97.6183 54.9278 98.1186 55.0207 98.5724C55.1186 99.0521 55.392 99.5059 55.7015 99.8773C56.2275 100.512 56.9238 101.316 56.9238 101.316C56.9238 101.316 57.8573 101.022 58.6567 100.857C59.1364 100.759 59.6315 100.574 60.0028 100.259C60.3639 99.965 60.6114 99.5214 60.7146 99.0727Z"
        fill="#FCCE5C" />
    <path
        d="M163.159 99.7015C163.081 99.4849 162.926 99.2941 162.736 99.16C162.55 99.0259 162.328 98.9434 162.101 98.9434C161.859 98.9434 161.622 99.0517 161.457 99.227C161.359 99.3302 161.286 99.4643 161.25 99.5984C161.163 99.5055 161.054 99.4282 160.93 99.3766C160.709 99.2889 160.446 99.2941 160.229 99.3972C160.023 99.4952 159.858 99.6654 159.749 99.8666C159.636 100.068 159.574 100.305 159.6 100.537C159.631 100.826 159.755 101.12 159.956 101.331C160.167 101.553 160.461 101.703 160.755 101.801C161.245 101.966 161.885 102.162 161.885 102.162C161.885 102.162 162.282 101.697 162.658 101.336C162.88 101.125 163.081 100.862 163.179 100.568C163.267 100.295 163.251 99.9749 163.159 99.7015Z"
        fill="#FCCE5C" />
    <path
        d="M66.393 82.3824C66.3156 82.1658 66.1609 81.975 65.9701 81.8409C65.7844 81.7068 65.5626 81.6191 65.3357 81.6242C65.0933 81.6242 64.8561 81.7325 64.691 81.9079C64.593 82.0111 64.5208 82.1452 64.4847 82.2792C64.397 82.1864 64.2887 82.109 64.1649 82.0575C63.9432 81.9698 63.6801 81.9749 63.4635 82.0781C63.2572 82.1761 63.0922 82.3463 62.9839 82.5474C62.8704 82.7486 62.8085 82.9858 62.8343 83.2128C62.8652 83.5016 62.989 83.7956 63.1902 84.007C63.4016 84.2288 63.6956 84.3784 63.9896 84.4764C64.4796 84.6414 65.1191 84.8374 65.1191 84.8374C65.1191 84.8374 65.5162 84.3732 65.8927 84.0122C66.1145 83.8007 66.3156 83.5377 66.4136 83.2437C66.5013 82.9755 66.4858 82.6557 66.393 82.3824Z"
        fill="#FCCE5C" />
    <path
        d="M156.805 17.4439C156.727 17.2273 156.573 17.0365 156.382 16.9024C156.196 16.7683 155.974 16.6806 155.747 16.6858C155.505 16.6858 155.268 16.7941 155.103 16.9694C155.005 17.0726 154.932 17.2067 154.896 17.3408C154.809 17.2479 154.7 17.1706 154.577 17.119C154.355 17.0313 154.092 17.0365 153.875 17.1396C153.669 17.2376 153.504 17.4078 153.395 17.609C153.282 17.8101 153.22 18.0474 153.246 18.2794C153.277 18.5683 153.401 18.8622 153.602 19.0737C153.813 19.2955 154.107 19.445 154.401 19.543C154.891 19.7081 155.531 19.9041 155.531 19.9041C155.531 19.9041 155.928 19.4399 156.304 19.084C156.526 18.8726 156.727 18.6095 156.825 18.3155C156.913 18.037 156.897 17.7173 156.805 17.4439Z"
        fill="#FCCE5C" />
    <path
        d="M155.778 87.4725C155.835 86.802 155.639 86.1264 155.294 85.5436C154.958 84.9763 154.474 84.4863 153.865 84.2233C153.22 83.9448 152.467 83.9448 151.823 84.2181C151.441 84.3831 151.101 84.6462 150.838 84.9659C150.714 84.6101 150.513 84.2748 150.25 84.0066C149.76 83.5064 149.058 83.2175 148.357 83.233C147.697 83.2433 147.057 83.5115 146.531 83.9087C145.995 84.3161 145.556 84.8628 145.35 85.5075C145.092 86.3121 145.071 87.2404 145.36 88.0347C145.659 88.8702 146.268 89.6232 146.928 90.2215C148.037 91.2272 149.502 92.5063 149.502 92.5063C149.502 92.5063 151.111 91.7378 152.519 91.2272C153.354 90.9229 154.205 90.4639 154.804 89.8037C155.371 89.1797 155.711 88.3132 155.778 87.4725Z"
        fill="#FCCE5C" />
</svg>