<svg viewBox="0 0 268 157" fill="none" xmlns="http://www.w3.org/2000/svg">
    <path
        d="M243.114 95.8869C246.759 95.8869 249.714 92.9445 249.714 89.3148C249.714 85.6851 246.759 82.7427 243.114 82.7427C239.469 82.7427 236.515 85.6851 236.515 89.3148C236.515 92.9445 239.469 95.8869 243.114 95.8869Z"
        fill="#EFCC64" />
    <path
        d="M267.967 77.1175C267.967 80.7494 265.015 83.6896 261.367 83.6896C257.72 83.6896 254.768 80.7494 254.768 77.1175C254.768 73.4856 257.72 70.5454 261.367 70.5454C265.015 70.5454 267.967 73.4856 267.967 77.1175Z"
        fill="#EFCC64" />
    <path
        d="M268 104.971C268 108.915 265.056 112.119 261.401 112.119C257.745 112.119 254.801 108.932 254.801 104.979C254.801 101.026 257.795 97.8384 261.392 97.8384C264.998 97.8466 268 101.017 268 104.971Z"
        fill="#EFCC64" />
    <path
        d="M259.457 104.131C259.175 104.543 254.792 102.064 249.656 98.5882C244.52 95.1209 240.6 91.9584 240.873 91.5467C241.146 91.1349 245.546 93.6138 250.673 97.0893C255.809 100.565 259.771 103.719 259.457 104.131Z"
        fill="#EFCC64" />
    <path
        d="M259.986 76.6726C260.292 77.068 256.901 80.1975 252.419 83.6565C247.936 87.1155 244.041 89.5698 243.735 89.2074C243.429 88.845 246.811 85.6825 251.302 82.2235C255.793 78.7645 259.68 76.2773 259.986 76.6726Z"
        fill="#EFCC64" />
    <path
        d="M76.7102 65.3313C78.3477 65.0348 80.0349 65.0348 81.6724 65.3313C80.0349 65.6113 78.356 65.6113 76.7102 65.3313Z"
        fill="#E0E0E0" />
    <path
        d="M55.0747 65.3312C56.8694 65.1089 58.6806 65.0347 60.4835 65.1088C62.2865 65.0347 64.0977 65.1089 65.8924 65.3312C64.0977 65.5453 62.2865 65.6112 60.4835 65.5453C58.6806 65.6112 56.8694 65.5453 55.0747 65.3312Z"
        fill="#E0E0E0" />
    <path
        d="M33.4312 65.3315C35.2258 65.1174 37.0288 65.0432 38.8317 65.1256C40.6347 65.0515 42.4459 65.1256 44.2406 65.3479C42.4459 65.5621 40.6347 65.628 38.8317 65.5621C37.0288 65.628 35.2258 65.5456 33.4312 65.3315Z"
        fill="#E0E0E0" />
    <path
        d="M33.886 60.3896C34.101 62.0285 34.1754 63.6839 34.101 65.331L33.886 65.1169H34.8867H35.8212L37.3926 65.1581C37.8805 65.1334 38.3768 65.1828 38.8482 65.3146C38.3685 65.4299 37.8805 65.4793 37.3926 65.4628L35.8212 65.5122H33.886C34.0762 65.7016 33.6213 65.2487 33.6709 65.2899C33.6048 63.651 33.6792 62.0121 33.886 60.3896Z"
        fill="#E0E0E0" />
    <path
        d="M33.4311 41.2417C33.7206 44.4289 33.7206 47.6326 33.4311 50.8198C33.1499 47.6326 33.1499 44.4289 33.4311 41.2417Z"
        fill="#E0E0E0" />
    <path
        d="M17.6511 22.0688C17.9405 25.2561 17.9405 28.4597 17.6511 31.647C17.3699 28.4597 17.3699 25.2561 17.6511 22.0688Z"
        fill="#E0E0E0" />
    <path
        d="M74.8079 32.6849C75.883 29.3247 74.783 25.6598 72.0373 23.4362C70.6561 22.382 68.9772 21.789 67.2404 21.7314C64.5774 21.6408 62.212 20.0431 61.1369 17.6135C58.0355 10.2097 49.5004 6.70949 42.0654 9.79787C39.2865 10.9509 36.9294 12.9357 35.3333 15.4723C34.407 16.93 33.6792 18.6265 32.1491 19.4748C30.2221 20.5455 27.8485 19.8207 25.6569 19.6807C19.1315 19.2689 12.9536 26.2034 13.2926 32.7013L74.8079 32.6849Z"
        fill="#EFCC64" />
    <path
        d="M212.51 95.6885C211.203 128.771 186.731 156.155 153.484 156.797C120.237 157.44 92.7628 131.127 92.1177 98.0191C91.4726 64.9116 117.988 34.3655 151.144 36.9103C186.491 39.5951 213.693 65.4964 212.51 95.6885Z"
        fill="#E0E0E0" />
    <path
        d="M205.165 112.72L186.375 124.25L193.272 140.762C199.674 134.841 204.71 127.602 208.027 119.555L205.165 112.72Z"
        fill="#FFBE9D" />
    <path
        d="M210.268 113.098C207.836 107.333 199.516 88.1935 192.528 81.0449C182.082 70.3385 163.697 71.788 163.697 71.788L139.812 72.6115C133.692 73.4351 127.746 75.2717 122.221 78.0306L121.634 78.2118V78.3271C114.952 81.9426 105.49 90.6148 96.4673 99.0317L107.26 108.997L119.203 119.555C119.178 119.621 119.178 119.703 119.203 119.769C119.327 120.412 117.259 133.185 115.431 144.221C133.61 158.246 158.214 160.733 178.857 150.645L179.75 140.441C180.577 131.192 181.189 119.744 181.189 119.744L184.613 128.4L209.532 115.503C209.788 114.721 210.028 113.914 210.268 113.098Z"
        fill="#7B20F9" />
    <path
        d="M143.872 119.211C143.862 119.32 143.819 119.371 143.742 119.365L143.191 119.318C143.149 119.314 143.113 119.298 143.085 119.269C143.056 119.24 143.041 119.206 143.04 119.166L142.978 117.185C142.97 116.935 142.969 116.69 142.974 116.448C142.981 116.206 142.987 115.953 142.992 115.689L142.998 115.221C142.999 115.212 142.996 115.207 142.989 115.207C142.985 115.206 142.981 115.209 142.979 115.216L142.783 115.741C142.743 115.848 142.7 115.954 142.653 116.06L141.38 118.757C141.367 118.789 141.342 118.818 141.306 118.844C141.271 118.869 141.236 118.881 141.203 118.878L140.682 118.833C140.614 118.828 140.562 118.779 140.527 118.688C139.911 116.845 139.583 115.86 139.543 115.733C139.505 115.604 139.471 115.482 139.443 115.367L139.333 114.902C139.331 114.895 139.327 114.892 139.32 114.891C139.316 114.891 139.312 114.895 139.309 114.903L139.264 115.435C139.224 115.898 139.165 116.37 139.087 116.85L138.77 118.803C138.763 118.837 138.739 118.867 138.699 118.893C138.661 118.918 138.622 118.929 138.582 118.926L138.125 118.887C138.071 118.882 138.029 118.855 137.998 118.806C137.968 118.758 137.96 118.701 137.972 118.636L138.738 114.352C138.769 114.172 138.801 114.059 138.833 114.014C138.892 113.931 138.988 113.895 139.123 113.906L139.482 113.937C139.59 113.946 139.664 113.967 139.704 113.999C139.777 114.055 139.836 114.156 139.882 114.301L141.018 117.867L142.563 114.526C142.654 114.316 142.787 114.218 142.962 114.233L143.337 114.265C143.532 114.281 143.638 114.38 143.656 114.56C143.66 114.617 143.664 114.679 143.667 114.746L143.871 119.141C143.873 119.163 143.874 119.187 143.872 119.211Z"
        fill="white" />
    <path
        d="M145.592 117.84L145.584 117.902C145.558 118.202 145.634 118.451 145.811 118.649C145.996 118.858 146.261 118.978 146.606 119.007C146.92 119.034 147.22 118.966 147.505 118.803C147.559 118.772 147.606 118.759 147.646 118.762C147.728 118.769 147.786 118.815 147.821 118.899L147.895 119.091C147.912 119.136 147.918 119.184 147.913 119.234C147.909 119.284 147.881 119.335 147.83 119.386C147.781 119.434 147.719 119.477 147.642 119.515C147.565 119.553 147.477 119.584 147.377 119.608C147.279 119.633 147.178 119.652 147.075 119.665C146.867 119.691 146.653 119.695 146.432 119.676C146.211 119.658 145.991 119.597 145.772 119.495C145.556 119.393 145.373 119.255 145.223 119.081C144.9 118.712 144.763 118.239 144.812 117.662C144.898 116.649 145.313 116.05 146.055 115.864C146.287 115.807 146.521 115.788 146.758 115.808C146.997 115.829 147.197 115.871 147.359 115.935C147.522 116 147.661 116.087 147.774 116.196C148.013 116.425 148.117 116.726 148.085 117.098C148.054 117.463 147.88 117.729 147.563 117.896C147.285 118.042 146.931 118.096 146.499 118.06C146.234 118.037 145.932 117.964 145.592 117.84ZM147.306 117.021C147.333 116.709 147.134 116.534 146.709 116.498C146.304 116.464 146.009 116.586 145.822 116.865C145.756 116.963 145.708 117.087 145.677 117.236C145.859 117.347 146.098 117.414 146.392 117.439C146.973 117.489 147.278 117.349 147.306 117.021Z"
        fill="white" />
    <path
        d="M149.073 116.329C149.086 116.172 149.163 116.099 149.302 116.111L149.481 116.126C149.603 116.136 149.685 116.196 149.727 116.306C149.786 116.465 149.822 116.68 149.832 116.952C149.831 116.957 149.832 116.959 149.835 116.959C149.839 116.959 149.85 116.923 149.867 116.85C149.885 116.776 149.925 116.688 149.987 116.585C150.049 116.481 150.122 116.394 150.206 116.327C150.375 116.193 150.574 116.137 150.802 116.156C151.056 116.178 151.23 116.234 151.322 116.326C151.365 116.367 151.38 116.42 151.365 116.485L151.277 116.894C151.254 117.004 151.192 117.055 151.09 117.046C151.042 117.042 150.983 117.027 150.914 117.001C150.78 116.955 150.673 116.928 150.593 116.921C150.513 116.914 150.426 116.942 150.332 117.005C150.238 117.065 150.154 117.144 150.081 117.241C149.933 117.444 149.848 117.667 149.827 117.91L149.679 119.652C149.674 119.713 149.652 119.763 149.613 119.802C149.574 119.84 149.521 119.857 149.455 119.851L149.07 119.818C148.999 119.812 148.947 119.787 148.913 119.742C148.881 119.698 148.867 119.645 148.873 119.583L149.065 117.323C149.098 116.938 149.106 116.683 149.09 116.559C149.076 116.432 149.071 116.355 149.073 116.329Z"
        fill="white" />
    <path
        d="M152.637 119.768C152.853 119.685 153.077 119.654 153.31 119.674C153.544 119.694 153.75 119.733 153.928 119.792C154.108 119.85 154.267 119.93 154.405 120.035C154.715 120.268 154.854 120.569 154.823 120.939C154.79 121.324 154.578 121.618 154.186 121.82C153.839 121.998 153.435 122.067 152.972 122.027C152.501 121.987 152.117 121.853 151.82 121.625C151.5 121.378 151.356 121.066 151.388 120.69C151.427 120.233 151.709 119.812 152.235 119.427C152.439 119.279 152.661 119.149 152.903 119.038C152.545 118.974 152.248 118.822 152.012 118.582C151.748 118.31 151.632 117.991 151.663 117.624C151.699 117.201 151.888 116.873 152.231 116.638C152.546 116.424 152.907 116.335 153.314 116.37C153.751 116.407 154.085 116.553 154.315 116.809C154.387 116.887 154.442 116.975 154.48 117.07C154.497 116.869 154.489 116.659 154.454 116.44C154.421 116.219 154.407 116.088 154.41 116.047C154.414 116.005 154.424 115.973 154.442 115.95C154.462 115.926 154.484 115.908 154.507 115.896C154.542 115.879 154.58 115.873 154.622 115.876L154.907 115.901C155.091 115.916 155.161 116.177 155.118 116.682C155.084 117.087 154.97 117.452 154.778 117.78C154.778 117.828 154.775 117.892 154.768 117.971C154.761 118.049 154.736 118.14 154.691 118.242C154.647 118.344 154.591 118.438 154.524 118.525C154.458 118.609 154.384 118.687 154.3 118.757C154.218 118.827 154.132 118.891 154.04 118.949C153.95 119.008 153.86 119.061 153.769 119.108C153.259 119.371 152.953 119.536 152.851 119.605C152.75 119.671 152.678 119.726 152.637 119.768ZM152.614 118.233C152.683 118.303 152.767 118.36 152.863 118.403C152.962 118.445 153.068 118.47 153.181 118.48C153.296 118.49 153.402 118.482 153.5 118.457C153.598 118.43 153.686 118.387 153.765 118.328C153.932 118.203 154.024 118.033 154.043 117.816C154.061 117.595 153.99 117.414 153.828 117.273C153.685 117.148 153.502 117.076 153.278 117.057C152.924 117.027 152.669 117.136 152.512 117.385C152.46 117.467 152.43 117.564 152.42 117.678C152.411 117.79 152.423 117.892 152.458 117.985C152.492 118.079 152.544 118.161 152.614 118.233ZM152.273 120.349C152.183 120.434 152.134 120.532 152.124 120.643C152.115 120.755 152.134 120.852 152.183 120.936C152.232 121.019 152.299 121.091 152.385 121.151C152.552 121.265 152.766 121.332 153.03 121.355C153.445 121.39 153.744 121.313 153.925 121.124C153.984 121.06 154.017 120.977 154.026 120.875C154.035 120.772 154.009 120.682 153.949 120.604C153.891 120.526 153.815 120.463 153.721 120.416C153.565 120.336 153.358 120.286 153.099 120.264C152.701 120.23 152.426 120.258 152.273 120.349Z"
        fill="white" />
    <path
        d="M156.355 118.757L156.347 118.819C156.321 119.118 156.397 119.367 156.574 119.565C156.759 119.774 157.024 119.894 157.369 119.923C157.683 119.95 157.983 119.882 158.268 119.719C158.322 119.688 158.369 119.675 158.409 119.678C158.491 119.685 158.549 119.731 158.584 119.815L158.658 120.007C158.675 120.052 158.68 120.1 158.676 120.15C158.672 120.201 158.644 120.251 158.593 120.302C158.544 120.351 158.482 120.394 158.405 120.431C158.328 120.469 158.24 120.5 158.14 120.524C158.042 120.549 157.941 120.568 157.837 120.581C157.63 120.608 157.416 120.611 157.195 120.593C156.974 120.574 156.754 120.513 156.535 120.411C156.319 120.309 156.136 120.171 155.986 119.997C155.663 119.628 155.526 119.155 155.575 118.578C155.661 117.565 156.075 116.966 156.818 116.78C157.05 116.723 157.284 116.704 157.521 116.725C157.76 116.745 157.96 116.787 158.121 116.852C158.285 116.916 158.424 117.003 158.537 117.112C158.776 117.341 158.88 117.642 158.848 118.014C158.817 118.379 158.643 118.645 158.326 118.812C158.048 118.958 157.694 119.013 157.262 118.976C156.997 118.953 156.695 118.88 156.355 118.757ZM158.069 117.938C158.096 117.625 157.897 117.45 157.472 117.414C157.067 117.38 156.772 117.502 156.585 117.782C156.519 117.879 156.471 118.003 156.44 118.152C156.622 118.263 156.861 118.33 157.155 118.355C157.736 118.405 158.041 118.266 158.069 117.938Z"
        fill="white" />
    <path
        d="M159.919 117.252C159.932 117.095 160.015 117.023 160.168 117.036L160.35 117.051C160.474 117.062 160.554 117.115 160.591 117.211C160.641 117.347 160.68 117.524 160.706 117.742C160.935 117.401 161.251 117.196 161.654 117.129C161.78 117.107 161.935 117.104 162.119 117.119C162.305 117.135 162.473 117.189 162.623 117.281C162.774 117.371 162.889 117.488 162.968 117.631C163.115 117.892 163.168 118.264 163.127 118.745L162.953 120.782C162.948 120.843 162.924 120.893 162.881 120.931C162.837 120.969 162.777 120.985 162.699 120.978L162.374 120.951C162.29 120.944 162.23 120.918 162.194 120.873C162.158 120.828 162.142 120.775 162.147 120.713L162.321 118.673C162.369 118.113 162.184 117.815 161.769 117.78C161.525 117.759 161.294 117.841 161.076 118.025C160.843 118.223 160.714 118.466 160.69 118.752L160.535 120.576C160.53 120.637 160.506 120.687 160.465 120.725C160.424 120.764 160.365 120.78 160.287 120.773L159.946 120.744C159.868 120.737 159.811 120.712 159.775 120.667C159.739 120.622 159.723 120.569 159.729 120.507L159.9 118.493C159.937 118.054 159.949 117.746 159.935 117.571C159.921 117.394 159.916 117.287 159.919 117.252Z"
        fill="white" />
    <path
        d="M164.359 70.8906C164.409 71.0306 164.45 71.1706 164.467 71.3189C164.549 71.7307 164.599 72.1425 164.624 72.5625C164.706 74.1108 164.491 75.6591 164.003 77.1333C163.276 79.3322 161.977 81.2923 160.232 82.8241C155.725 86.5796 149.257 86.8844 144.411 83.5654C142.525 82.2065 141.037 80.3781 140.102 78.2533C139.473 76.8368 139.118 75.3132 139.06 73.7649C139.027 73.3449 139.027 72.9331 139.06 72.513C139.06 72.3648 139.085 72.2166 139.126 72.0766C139.176 72.0766 139.126 72.6778 139.192 73.7237C139.325 75.2391 139.713 76.7133 140.35 78.0969C141.301 80.1393 142.765 81.9017 144.601 83.2112C149.307 86.3737 155.551 86.0855 159.934 82.4865C162.837 79.9993 164.491 76.3509 164.45 72.5378C164.434 71.4836 164.309 70.8906 164.359 70.8906Z"
        fill="#263238" />
    <path
        d="M187.103 76.0459C186.54 76.1365 185.986 76.2683 185.449 76.4413C183.968 77.0013 182.686 77.9649 181.752 79.2332C180.404 81.1438 179.593 83.3757 179.403 85.7064C179.237 87.0159 179.163 88.4077 179.113 89.8243C179.064 91.2408 179.031 92.7562 179.014 94.288C178.981 99.5094 179.213 104.739 179.717 109.936C179.907 111.929 180.106 113.543 180.23 114.663C180.296 115.182 180.337 115.602 180.379 115.948C180.404 116.096 180.404 116.253 180.379 116.401C180.321 116.261 180.288 116.104 180.271 115.956C180.205 115.618 180.131 115.198 180.04 114.68C179.866 113.576 179.618 111.962 179.395 109.961C178.799 104.756 178.526 99.5094 178.568 94.2715C178.568 92.7397 178.609 91.2408 178.675 89.7913C178.741 88.3418 178.807 86.9418 178.989 85.6158C179.204 83.2357 180.056 80.9626 181.47 79.0273C182.455 77.7343 183.811 76.7707 185.358 76.2601C185.92 76.0706 186.515 76.0048 187.103 76.0459Z"
        fill="#263238" />
    <path
        d="M130.26 74.4976C130.244 74.654 130.21 74.8105 130.161 74.9588L129.789 76.26L128.383 81.0367C127.217 85.0722 125.67 90.6642 124.157 96.8904C122.643 103.117 121.46 108.775 120.658 112.892C120.261 114.91 119.947 116.557 119.715 117.776C119.608 118.311 119.517 118.748 119.442 119.102C119.426 119.259 119.385 119.407 119.327 119.555C119.31 119.399 119.31 119.242 119.327 119.086C119.376 118.731 119.434 118.262 119.517 117.743C119.682 116.582 119.955 114.902 120.344 112.802C121.08 108.684 122.221 102.919 123.726 96.7257C125.232 90.5325 126.836 84.8993 128.085 80.8885C128.705 78.879 129.235 77.2565 129.615 76.1447C129.797 75.6258 129.946 75.2058 130.07 74.8682C130.128 74.7364 130.186 74.6129 130.26 74.4976Z"
        fill="#263238" />
    <path
        d="M209.796 109.121C209.49 109.392 209.168 109.631 208.821 109.845C208.184 110.29 207.241 110.916 206.067 111.665C203.718 113.181 200.434 115.199 196.738 117.307C193.041 119.415 189.625 121.219 187.136 122.471C185.887 123.097 184.87 123.591 184.167 123.92C183.803 124.11 183.43 124.266 183.042 124.39C183.373 124.159 183.72 123.945 184.084 123.772L186.995 122.199C189.476 120.881 192.834 119.045 196.522 116.936C200.211 114.828 203.519 112.818 205.901 111.41L208.73 109.705C209.069 109.475 209.424 109.277 209.796 109.121Z"
        fill="#263238" />
    <path
        d="M120.451 112.736C120.369 112.826 115.679 109.145 109.965 104.5C104.25 99.8549 99.6679 96.0253 99.7423 95.9347C99.8168 95.8441 104.514 99.5255 110.229 104.17C115.944 108.815 120.526 112.645 120.451 112.736Z"
        fill="#263238" />
    <path opacity="0.2"
        d="M178.741 96.0015L188.087 126.622L184.605 128.425L181.181 119.77C181.181 119.77 177.649 101.569 178.741 96.0015Z"
        fill="black" />
    <g opacity="0.2">∫
        <path opacity="0.2"
            d="M131.269 74.5141C126.233 77.166 138.862 83.5734 144.568 83.3593L140.433 72.4717C140.433 72.4717 132.965 73.6329 131.269 74.5141Z"
            fill="black" />
    </g>
    <path
        d="M160.571 35.551C160.339 36.3993 160.629 37.3052 161.307 37.8653C162.002 38.4088 162.953 38.4994 163.738 38.0959C165.177 37.3299 165.326 35.3204 165.004 33.7227C164.681 32.125 164.111 30.4284 164.756 28.9378C165.252 27.793 166.352 27.0518 167.237 26.1376C168.767 24.5399 169.453 22.3163 169.081 20.142C168.668 17.9678 167.071 16.2054 164.946 15.5712C162.796 15.0194 160.166 15.7277 158.545 14.2123C157.362 13.117 157.254 11.2804 156.336 9.96272C154.906 7.92027 151.961 7.64849 149.488 8.02733C147.016 8.40617 144.526 9.25445 142.045 8.70266C140.002 8.24146 138.315 6.85786 136.396 6.03429C130.864 3.58829 124.388 6.07547 121.94 11.5851C120.55 14.7065 120.707 18.2972 122.362 21.2868C123.098 22.7528 124.322 23.9222 125.827 24.5811"
        fill="#263238" />
    <path
        d="M151.895 85.5826C145.354 85.6238 139.936 80.5506 139.573 74.0527C139.3 68.65 139.076 63.4533 139.076 63.4533C139.076 63.4533 129.011 62.7286 128.085 52.9363C127.159 43.1441 127.026 20.4877 127.026 20.4877C138.125 14.6815 151.498 15.258 162.06 21.9866L163.019 22.596L164.185 73.2867C164.227 80.04 158.768 85.5415 151.986 85.5826C151.962 85.5826 151.929 85.5826 151.895 85.5826Z"
        fill="#FFBE9D" />
    <path
        d="M146.123 35.5425C145.37 35.7813 144.956 36.5802 145.188 37.3296C145.188 37.3379 145.188 37.3379 145.196 37.3461C145.453 38.0955 146.271 38.4991 147.032 38.252C147.785 38.0049 148.19 37.1896 147.942 36.4402C147.694 35.6907 146.875 35.2872 146.123 35.5425Z"
        fill="#263238" />
    <path
        d="M143.36 36.0453C143.526 36.21 144.46 35.4111 145.842 35.3205C147.223 35.2299 148.248 35.8723 148.389 35.6911C148.529 35.51 148.281 35.3123 147.826 35.0158C146.569 34.2334 144.957 34.3405 143.824 35.2958C143.41 35.6582 143.286 35.9794 143.36 36.0453Z"
        fill="#263238" />
    <path
        d="M131.104 35.5425C130.351 35.7813 129.937 36.572 130.177 37.3214C130.177 37.3297 130.186 37.3379 130.186 37.3461C130.425 38.1038 131.244 38.5238 132.005 38.285C132.766 38.0462 133.188 37.2308 132.948 36.4731C132.708 35.7155 131.889 35.2954 131.128 35.5343C131.12 35.5343 131.112 35.5425 131.104 35.5425Z"
        fill="#263238" />
    <path
        d="M128.151 36.0782C128.316 36.2429 129.251 35.4358 130.632 35.3534C132.013 35.2711 133.039 35.9052 133.179 35.7241C133.32 35.5429 133.072 35.3452 132.617 35.0405C131.36 34.2663 129.747 34.3816 128.614 35.3287C128.209 35.6911 128.085 36.0041 128.151 36.0782Z"
        fill="#263238" />
    <path
        d="M138.497 46.6694C137.77 46.447 137.009 46.3564 136.248 46.3894C135.884 46.3894 135.594 46.3153 135.553 46.1341C135.512 45.7799 135.57 45.4176 135.727 45.0964L136.554 42.2715C137.728 38.236 138.506 34.9253 138.299 34.8594C138.092 34.7935 136.976 38.0137 135.818 42.0492L134.991 44.8905C134.792 45.3599 134.767 45.887 134.916 46.3811C135.04 46.6447 135.288 46.8341 135.578 46.8918C135.785 46.9165 135.983 46.9165 136.19 46.8918C136.967 46.9494 137.753 46.8753 138.497 46.6694Z"
        fill="#263238" />
    <path
        d="M143.038 47.8306C140.945 48.8765 138.754 49.7083 136.488 50.3013C137.571 51.6849 139.465 52.1543 141.069 51.4296C143.981 50.0789 143.038 47.8306 143.038 47.8306Z"
        fill="white" />
    <path
        d="M139.043 63.2976C143.633 63.0176 148.033 61.3951 151.697 58.6279C151.697 58.6279 149.216 65.933 139.233 65.8424L139.043 63.2976Z"
        fill="#A36957" />
    <path
        d="M163.275 32.5041C163.259 31.7052 163.879 31.0381 164.681 30.9887C166.534 30.9063 169.586 31.5734 169.974 36.6219C170.52 43.8364 163.449 42.1728 163.416 41.9669C163.383 41.761 163.308 35.3124 163.275 32.5041Z"
        fill="#FFBE9D" />
    <path
        d="M164.979 39.0924C164.979 39.0924 165.111 39.1748 165.335 39.2571C165.649 39.356 165.988 39.3395 166.286 39.2077C167.038 38.87 167.592 37.61 167.526 36.3087C167.501 35.6828 167.336 35.0816 167.038 34.5298C166.865 34.0851 166.476 33.7474 166.005 33.6404C165.699 33.5827 165.393 33.7557 165.285 34.0439C165.202 34.2498 165.285 34.3898 165.219 34.4063C165.153 34.4228 165.053 34.2992 165.087 33.9945C165.111 33.8133 165.202 33.6404 165.343 33.5168C165.533 33.3521 165.781 33.2698 166.029 33.2862C166.65 33.3521 167.187 33.7392 167.444 34.2992C167.807 34.9004 168.014 35.584 168.039 36.284C168.105 37.7418 167.452 39.1583 166.385 39.5371C165.996 39.6771 165.566 39.636 165.211 39.4301C165.004 39.2654 164.954 39.1089 164.979 39.0924Z"
        fill="#263238" />
    <path
        d="M148.24 32.0264C147.934 32.4218 146.85 32.2406 145.453 32.1829C144.055 32.1253 142.972 32.117 142.699 31.6888C142.426 31.2605 143.766 30.2146 145.569 30.3546C147.371 30.4946 148.587 31.6147 148.24 32.0264Z"
        fill="#263238" />
    <path
        d="M132.435 31.7795C132.328 32.2736 131.426 32.5125 130.401 32.603C129.375 32.6936 128.432 32.603 128.242 32.1336C128.052 31.6642 128.912 30.8982 130.235 30.7829C131.559 30.6676 132.543 31.2936 132.435 31.7795Z"
        fill="#263238" />
    <path
        d="M125.67 23.5761C125.67 23.5761 131.641 26.4503 139.407 22.5878C144.51 20.0594 150.448 18.8158 151.755 19.8371C153.062 20.8583 153.343 26.0879 158.371 27.6198C158.371 27.6198 158.024 37.5932 162.019 37.2391C166.013 36.8849 163.515 21.4265 163.515 21.4265L153.74 16.6745L143.038 14.665L132.981 16.0816L125.207 18.1982L125.67 23.5761Z"
        fill="#263238" />
    <path
        d="M89.9253 40.6572C90.281 41.2255 101.777 80.8886 101.777 80.8886L78.9671 83.9935L68.4719 51.6189L89.9253 40.6572Z"
        fill="#455A64" />
    <path d="M101.777 80.8887L103.828 79.8098L91.8854 39.6196L89.6772 40.7809L101.777 80.8887Z" fill="#263238" />
    <path
        d="M80.3646 51.1906C80.4804 51.7094 80.1413 52.22 79.6203 52.3353C79.0993 52.4506 78.5865 52.113 78.4707 51.5941C78.3549 51.0753 78.694 50.5647 79.215 50.4494H79.2233C79.7443 50.3423 80.2571 50.6717 80.3646 51.1906Z"
        fill="#EFCC64" />
    <path
        d="M97.4762 98.9991L82.5068 108.709L79.7528 73.9791L79.9843 72.2413L90.1073 68.42L87.1961 61.0078C85.8646 57.73 82.1098 56.157 78.8265 57.4829C78.6528 57.5488 78.4874 57.6312 78.322 57.7136L75.0717 59.3607C72.7643 60.5384 71.0606 62.6303 70.3824 65.1257C69.2328 69.4247 68.2073 74.0779 68.3148 73.6743L61.897 118.378C61.897 118.378 58.8535 131.267 67.6862 137.402C74.377 142.031 85.6413 137.114 91.6208 133.746L117.54 118.197L97.4762 98.9991Z"
        fill="#FFBE9D" />
    <path
        d="M223.311 34.0722C223.302 36.1147 221.64 37.7618 219.581 37.7618C217.53 37.7536 215.875 36.0982 215.875 34.0475C215.875 31.9968 217.546 30.3579 219.605 30.3579C219.605 30.3579 219.605 30.3579 219.614 30.3579C221.656 30.3661 223.311 32.0298 223.311 34.0722Z"
        fill="#EFCC64" />
    <path
        d="M212.179 29.3202C216.041 25.1776 222.542 24.9388 226.702 28.7766C226.826 28.8919 226.941 29.0072 227.057 29.1225C228.951 31.025 231.92 28.0931 230.018 26.1741C224.386 20.4997 215.198 20.4503 209.499 26.0671C209.408 26.1577 209.317 26.2483 209.226 26.3389C207.374 28.2825 210.301 31.2309 212.187 29.2872L212.179 29.3202Z"
        fill="#EFCC64" />
    <path
        d="M199.575 12.1157C205.215 7.25664 211.955 4.2012 219.498 4.18473C227.016 4.10237 234.285 6.86956 239.827 11.9263C241.778 13.7546 244.756 10.8309 242.787 8.9779C236.461 3.14703 228.132 -0.0648916 219.506 0.000993919C210.822 0.000993919 203.106 3.54234 196.622 9.13438C194.588 10.905 197.532 13.8534 199.583 12.0828L199.575 12.1157Z"
        fill="#EFCC64" />
    <path
        d="M204.545 21.6531C212.071 13.2939 224.981 12.5856 233.376 20.0883C233.781 20.4507 234.178 20.8295 234.55 21.2249C236.428 23.1438 239.388 20.2201 237.511 18.2765C228.124 8.5007 212.559 8.16303 202.742 17.5106C202.345 17.8894 201.965 18.2765 201.593 18.68C199.773 20.6401 202.709 23.5967 204.553 21.6284L204.545 21.6531Z"
        fill="#EFCC64" />
    <path
        d="M150.63 101.162C150.63 101.162 150.738 101.154 150.928 101.146C151.143 101.137 151.432 101.137 151.813 101.121C152.598 101.113 153.748 101.203 155.212 101.508C156.651 101.87 158.388 102.505 160.158 103.666C161.051 104.234 161.911 104.967 162.779 105.799C163.598 106.672 164.442 107.619 165.145 108.755C165.533 109.299 165.823 109.917 166.17 110.518C166.451 111.152 166.79 111.786 167.014 112.47C167.287 113.137 167.477 113.862 167.684 114.586C167.832 115.319 168.014 116.069 168.072 116.859C168.411 119.972 167.799 123.39 166.245 126.536C164.698 129.682 162.134 132.606 158.694 134.36C155.27 136.131 151.093 136.641 147.099 135.818C143.104 135.011 139.465 132.902 137.009 129.946C134.536 126.981 133.328 123.291 133.122 119.799C133.014 118.045 133.155 116.324 133.494 114.693C133.849 113.071 134.428 111.539 135.164 110.164C135.884 108.772 136.819 107.561 137.827 106.524C138.828 105.461 139.953 104.621 141.078 103.913C143.344 102.521 145.668 101.722 147.752 101.376C149.836 101.022 151.68 101.039 153.153 101.228C154.625 101.426 155.741 101.739 156.477 101.994C156.833 102.126 157.106 102.241 157.313 102.307C157.494 102.381 157.585 102.422 157.585 102.422C157.585 102.422 157.486 102.397 157.296 102.34C157.098 102.274 156.816 102.175 156.461 102.052C155.725 101.813 154.608 101.524 153.136 101.352C151.672 101.179 149.844 101.187 147.785 101.549C145.726 101.912 143.435 102.71 141.194 104.102C140.085 104.811 138.977 105.642 138.001 106.688C137.009 107.718 136.091 108.912 135.388 110.279C134.668 111.646 134.106 113.145 133.758 114.751C133.428 116.357 133.295 118.053 133.403 119.783C133.618 123.226 134.825 126.841 137.249 129.748C139.664 132.647 143.236 134.714 147.173 135.505C151.101 136.312 155.195 135.818 158.553 134.08C161.927 132.359 164.458 129.493 165.988 126.396C167.526 123.3 168.147 119.931 167.816 116.876C167.766 116.11 167.593 115.369 167.452 114.644C167.254 113.927 167.063 113.219 166.799 112.552C166.575 111.868 166.245 111.251 165.972 110.625C165.633 110.032 165.343 109.422 164.963 108.879C164.276 107.759 163.449 106.812 162.639 105.947C161.787 105.123 160.935 104.39 160.067 103.822C158.33 102.653 156.618 102.01 155.187 101.632C153.748 101.31 152.598 101.195 151.821 101.187C151.441 101.179 151.151 101.179 150.936 101.179C150.738 101.179 150.63 101.162 150.63 101.162Z"
        fill="#FAFAFA" />
    <path
        d="M157.925 140.092C157.933 140.117 157.61 140.175 157.04 140.265C156.75 140.315 156.403 140.364 155.998 140.389C155.584 140.422 155.121 140.471 154.6 140.471C153.566 140.504 152.334 140.455 150.969 140.298C149.613 140.117 148.132 139.821 146.611 139.351C145.097 138.874 143.716 138.264 142.5 137.646C141.293 137.004 140.251 136.345 139.415 135.719C138.985 135.423 138.638 135.118 138.324 134.855C138.001 134.599 137.745 134.36 137.538 134.155C137.125 133.759 136.893 133.529 136.918 133.512C136.926 133.496 137.191 133.693 137.629 134.064C137.852 134.253 138.117 134.476 138.44 134.715C138.762 134.962 139.126 135.258 139.556 135.53C140.391 136.123 141.442 136.757 142.641 137.383C143.848 137.984 145.221 138.569 146.718 139.047C148.207 139.508 149.671 139.804 151.011 140.01C152.359 140.183 153.574 140.265 154.6 140.257C155.113 140.274 155.576 140.241 155.981 140.224C156.395 140.216 156.742 140.183 157.023 140.158C157.602 140.084 157.925 140.068 157.925 140.092Z"
        fill="#FAFAFA" />
    <path
        d="M143.145 101.129C143.162 101.228 141.541 101.557 139.705 102.381C137.861 103.196 136.529 104.185 136.471 104.102C136.413 104.045 137.679 102.924 139.581 102.084C141.458 101.253 143.145 101.047 143.145 101.129Z"
        fill="#FAFAFA" />
    <path
        d="M170.595 120.631C170.628 120.623 170.744 121.117 170.793 121.933C170.851 122.74 170.826 123.885 170.644 125.112C170.446 126.339 170.115 127.426 169.809 128.184C169.503 128.941 169.255 129.378 169.214 129.361C169.123 129.328 169.95 127.492 170.33 125.062C170.719 122.641 170.496 120.64 170.595 120.631Z"
        fill="#FAFAFA" />
    <path fill-rule="evenodd" clip-rule="evenodd"
        d="M27.6034 98.8694L23.0176 103.437V86.3159H19.4764V103.437L14.8906 98.8694L12.3941 101.366L21.247 110.219L30.0999 101.366L27.6034 98.8694ZM33.6411 114.645V102.251H37.1823V114.645C37.1823 116.593 35.5888 118.186 33.6411 118.186H8.85294C6.90529 118.186 5.31177 116.593 5.31177 114.645V102.251H8.85294V114.645H33.6411Z"
        fill="#EFCC64" />
</svg>